<svg width="21" height="20" viewBox="0 0 21 20" fill="none" xmlns="http://www.w3.org/2000/svg">
<g clip-path="url(#clip0_1066_22080)">
<path d="M10.8264 15.0014L7.71194 16.2694C7.70182 16.2713 7.69293 16.2771 7.68721 16.2855C7.68149 16.2938 7.67939 16.304 7.68142 16.3138C7.68344 16.3236 7.68941 16.3323 7.69799 16.3378C7.70657 16.3434 7.71708 16.3454 7.72719 16.3434H13.9554C13.9604 16.3444 13.9656 16.3443 13.9706 16.3433C13.9756 16.3423 13.9803 16.3403 13.9845 16.3376C13.9887 16.3348 13.9923 16.3312 13.9951 16.3271C13.9979 16.3229 13.9998 16.3183 14.0008 16.3134C14.0017 16.3086 14.0017 16.3036 14.0007 16.2987C13.9996 16.2939 13.9976 16.2893 13.9948 16.2852C13.9919 16.2811 13.9882 16.2776 13.984 16.2749C13.9797 16.2722 13.9749 16.2703 13.9699 16.2694L10.8562 15.0014C10.8516 14.9992 10.8465 14.998 10.8413 14.998C10.8361 14.998 10.831 14.9992 10.8264 15.0014Z" fill="#C9A125"/>
<path d="M10.833 14.0693L10.8407 14.0767C4.228 18.5108 -1.65011 12.8917 3.54147 6.89854C3.82981 6.56452 4.24402 6.12533 4.72001 5.63281C4.50185 6.66302 4.83747 7.95985 5.97709 9.27816C7.01525 10.4758 10.3334 13.5916 10.833 14.0693Z" fill="#0C0C0C"/>
<mask id="mask0_1066_22080" style="mask-type:luminance" maskUnits="userSpaceOnUse" x="1" y="5" width="10" height="11">
<path d="M6.1669 15.7435H6.06468C4.65656 15.7206 3.41702 15.2133 2.57565 14.3149C1.24458 12.8936 0.68317 10.0867 3.48339 6.85235C3.74427 6.55165 4.131 6.13616 4.66496 5.58366L4.85031 5.39258L4.79539 5.64957C4.55969 6.76051 5.00059 8.03438 6.0357 9.23271C6.94571 10.2822 9.59261 12.7877 10.5888 13.735L10.8871 14.0179L10.9633 14.092L10.8871 14.1431C9.31647 15.1866 7.68791 15.7435 6.1669 15.7435ZM4.60546 5.86139C4.16075 6.32428 3.83045 6.68052 3.60008 6.94641C0.863173 10.1074 1.39866 12.8366 2.68473 14.2142C3.49787 15.0814 4.69775 15.5717 6.06315 15.5939C7.55518 15.6221 9.16467 15.0911 10.7162 14.0668L10.4767 13.8394C9.47895 12.8936 6.82824 10.3814 5.91364 9.32678C4.92354 8.17807 4.46587 6.95826 4.60546 5.86139Z" fill="white"/>
</mask>
<g mask="url(#mask0_1066_22080)">
<path d="M0.863281 9.81008L1.19205 9.25684L10.6164 14.5397L9.97258 15.621H0.863281V9.81008Z" fill="#FFD700"/>
<path d="M1.22671 9.20008L1.19238 9.25781L10.6158 14.5403L10.6502 14.4826L1.22671 9.20008Z" fill="#FFD700"/>
<path d="M1.26088 9.14248L1.22656 9.2002L10.65 14.4827L10.6843 14.425L1.26088 9.14248Z" fill="#FFD600"/>
<path d="M1.29506 9.08388L1.26074 9.1416L10.6842 14.4241L10.7185 14.3664L1.29506 9.08388Z" fill="#FED500"/>
<path d="M1.29492 9.08511L1.32925 9.02734L10.7215 14.2924V14.3628L10.7185 14.368L1.29492 9.08511Z" fill="#FDD400"/>
<path d="M1.33008 9.02652L1.3644 8.96875L10.7224 14.2146V14.2916L1.33008 9.02652Z" fill="#FCD300"/>
<path d="M1.36426 8.96988L1.39858 8.91211L10.7222 14.1394V14.2157L1.36426 8.96988Z" fill="#FAD200"/>
<path d="M1.39844 8.91152L1.43276 8.85449L10.7221 14.0618V14.1388L1.39844 8.91152Z" fill="#F9D000"/>
<path d="M1.43262 8.85464L1.46694 8.79688L10.7219 13.985V14.062L1.43262 8.85464Z" fill="#F8CF00"/>
<path d="M1.4668 8.79703L1.50112 8.73926L10.7218 13.9081V13.9851L1.4668 8.79703Z" fill="#F7CE00"/>
<path d="M1.50098 8.73843L1.53454 8.68066L10.7216 13.8302V13.9073L1.50098 8.73843Z" fill="#F6CD01"/>
<path d="M1.53418 8.68082L1.56927 8.62305L10.7213 13.7541V13.8304L1.53418 8.68082Z" fill="#F5CC01"/>
<path d="M1.57031 8.6232L1.60388 8.56543L10.7223 13.6772V13.7542L1.57031 8.6232Z" fill="#F4CB02"/>
<path d="M1.60352 8.56484L1.63784 8.50781L10.722 13.5996V13.6766L1.60352 8.56484Z" fill="#F3CA02"/>
<path d="M1.6377 8.50796L1.67202 8.4502L10.7218 13.5227V13.5998L1.6377 8.50796Z" fill="#F2C802"/>
<path d="M1.67188 8.45132L1.7062 8.39355L10.7217 13.4476V13.5239L1.67188 8.45132Z" fill="#F1C703"/>
<path d="M1.70605 8.39273L1.74038 8.33496L10.7215 13.3697V13.4468L1.70605 8.39273Z" fill="#F0C603"/>
<path d="M1.74121 8.33511L1.77554 8.27734L10.7224 13.2929V13.3699L1.74121 8.33511Z" fill="#EFC503"/>
<path d="M1.77441 8.2775L1.80874 8.21973L10.7212 13.216V13.293L1.77441 8.2775Z" fill="#EEC404"/>
<path d="M1.80957 8.22109L1.8439 8.16406L10.7221 13.1411V13.2173L1.80957 8.22109Z" fill="#EDC304"/>
<path d="M1.84375 8.16324L1.87808 8.10547L10.7219 13.0632V13.1402L1.84375 8.16324Z" fill="#ECC105"/>
<path d="M1.87793 8.10367L1.91226 8.0459L10.7218 12.9844V13.0614L1.87793 8.10367Z" fill="#EBC005"/>
<path d="M1.91211 8.04605L1.94644 7.98828L10.7216 12.9075V12.9845L1.91211 8.04605Z" fill="#EABF05"/>
<path d="M1.94727 7.98941L1.98159 7.93164L10.7225 12.8316V12.9086L1.94727 7.98941Z" fill="#E9BE06"/>
<path d="M1.98145 7.93179L2.01577 7.87402L10.7223 12.7555V12.8318L1.98145 7.93179Z" fill="#E8BD06"/>
<path d="M2.01562 7.87343L2.04995 7.81641L10.7222 12.6779V12.7549L2.01562 7.87343Z" fill="#E7BC06"/>
<path d="M2.0498 7.81656L2.08337 7.75879L10.722 12.601V12.678L2.0498 7.81656Z" fill="#E6BB06"/>
<path d="M2.08398 7.75992L2.11831 7.70215L10.7226 12.5251V12.6021L2.08398 7.75992Z" fill="#E5BA07"/>
<path d="M2.11816 7.70132L2.15249 7.64355L10.7225 12.448V12.5243L2.11816 7.70132Z" fill="#E4B807"/>
<path d="M2.15234 7.64371L2.18667 7.58594L10.7223 12.3711V12.4481L2.15234 7.64371Z" fill="#E3B707"/>
<path d="M2.18555 7.58632L2.21987 7.5293L10.7212 12.2945V12.3715L2.18555 7.58632Z" fill="#E2B608"/>
<path d="M2.22168 7.52847L2.25601 7.4707L10.723 12.2166V12.2937L2.22168 7.52847Z" fill="#E1B508"/>
<path d="M2.25586 7.47183L2.29019 7.41406L10.7229 12.1415V12.2178L2.25586 7.47183Z" fill="#E0B408"/>
<path d="M2.28906 7.41324L2.32339 7.35547L10.7218 12.0636V12.1406L2.28906 7.41324Z" fill="#DFB309"/>
<path d="M2.32422 7.35562L2.35854 7.29785L10.7226 11.9867V12.0638L2.32422 7.35562Z" fill="#DEB209"/>
<path d="M2.3584 7.29703L2.39272 7.23926L10.7224 11.9089V11.9859L2.3584 7.29703Z" fill="#DDB109"/>
<path d="M2.3916 7.24062L2.42593 7.18359L10.7213 11.834V11.9103L2.3916 7.24062Z" fill="#DCB009"/>
<path d="M2.42676 7.18179L2.46108 7.12402L10.7222 11.7551V11.8322L2.42676 7.18179Z" fill="#DBAF0A"/>
<path d="M2.46094 7.12515L2.49526 7.06738L10.722 11.6793V11.7563L2.46094 7.12515Z" fill="#DAAE0A"/>
<path d="M2.49512 7.06753L2.52944 7.00977L10.7219 11.6024V11.6794L2.49512 7.06753Z" fill="#D9AC0A"/>
<path d="M2.5293 7.00992L2.56286 6.95215L10.7217 11.5262V11.6025L2.5293 7.00992Z" fill="#D8AB0A"/>
<path d="M2.56348 6.95254L2.5978 6.89551L10.7223 11.4496V11.5266L2.56348 6.95254Z" fill="#D7AA0B"/>
<path d="M2.59766 6.89566L2.63198 6.83789L10.7222 11.3727V11.4498L2.59766 6.89566Z" fill="#D6A90B"/>
<path d="M2.63184 6.83804L2.66616 6.78027L10.722 11.2959V11.3729L2.63184 6.83804Z" fill="#D5A80B"/>
<path d="M2.66602 6.77945L2.70034 6.72168L10.7219 11.218V11.295L2.66602 6.77945Z" fill="#D4A70B"/>
<path d="M2.7002 6.72085L2.73452 6.66309L10.7217 11.1409V11.2172L2.7002 6.72085Z" fill="#D3A60B"/>
<path d="M2.73438 6.66421L2.7687 6.60645L10.7216 11.065V11.142L2.73438 6.66421Z" fill="#D2A50C"/>
<path d="M2.76953 6.60683L2.80386 6.5498L10.7224 10.9884V11.0654L2.76953 6.60683Z" fill="#D1A40C"/>
<path d="M2.80371 6.54898L2.83804 6.49121L10.7223 10.9105V10.9875L2.80371 6.54898Z" fill="#D0A30C"/>
<path d="M2.83789 6.49039L2.87222 6.43262L10.7221 10.8334V10.9097L2.83789 6.49039Z" fill="#D0A20C"/>
<path d="M2.87207 6.43375L2.9064 6.37598L10.722 10.7575V10.8345L2.87207 6.43375Z" fill="#CFA10C"/>
<path d="M2.90625 6.37515L2.94058 6.31738L10.7218 10.6797V10.7567L2.90625 6.37515Z" fill="#CEA00D"/>
<path d="M2.94141 6.31875L2.97573 6.26172L10.7227 10.604V10.681L2.94141 6.31875Z" fill="#CD9F0D"/>
<path d="M2.97559 6.25992L3.00991 6.20215L10.7225 10.5259V10.6022L2.97559 6.25992Z" fill="#CC9E0D"/>
<path d="M3.00977 6.20328L3.04333 6.14551L10.7224 10.45V10.527L3.00977 6.20328Z" fill="#CB9D0D"/>
<path d="M3.04199 6.14468L3.07632 6.08691L10.721 10.3722V10.4492L3.04199 6.14468Z" fill="#CA9C0D"/>
<path d="M3.07715 6.08707L3.11147 6.0293L10.7219 10.2953V10.3723L3.07715 6.08707Z" fill="#C99B0D"/>
<path d="M3.11133 6.02945L3.14565 5.97168L10.7217 10.2184V10.2954L3.11133 6.02945Z" fill="#C89A0E"/>
<path d="M3.14551 5.97207L3.17983 5.91504L10.7216 10.1425V10.2188L3.14551 5.97207Z" fill="#C7990E"/>
<path d="M3.17969 5.91539L3.21173 5.86133H3.22088L10.7214 10.0659V10.1429L3.17969 5.91539Z" fill="#C6980E"/>
<path d="M3.35898 5.86133L10.7222 9.98883V10.0659L3.22168 5.86133H3.35898Z" fill="#C6970E"/>
<path d="M3.4957 5.86133L10.7217 9.9118V9.98883L3.3584 5.86133H3.4957Z" fill="#C5960E"/>
<path d="M3.63263 5.86133L10.7221 9.83552V9.9118L3.49609 5.86133H3.63263Z" fill="#C4950E"/>
<path d="M3.77012 5.86133L10.7222 9.75849V9.83552L3.63281 5.86133H3.77012Z" fill="#C3940E"/>
<path d="M3.90683 5.86133L10.7216 9.68147V9.75849L3.76953 5.86133H3.90683Z" fill="#C2930E"/>
<path d="M4.04453 5.86133L10.722 9.60445V9.68147L3.90723 5.86133H4.04453Z" fill="#C1920E"/>
<path d="M4.18049 5.86133L10.7215 9.52816V9.60444L4.04395 5.86133H4.18049Z" fill="#C0910F"/>
<path d="M4.31797 5.86133L10.7216 9.45114V9.52816L4.18066 5.86133H4.31797Z" fill="#BF900F"/>
<path d="M4.45566 5.86133L10.722 9.37411V9.45114L4.31836 5.86133H4.45566Z" fill="#BF8F0F"/>
<path d="M4.59336 5.86133L10.7224 9.29709V9.37411L4.45605 5.86133H4.59336Z" fill="#BE8E0F"/>
<path d="M4.72931 5.86133L10.7218 9.2208V9.29709L4.59277 5.86133H4.72931Z" fill="#BD8D0F"/>
<path d="M4.8668 5.86133L10.722 9.14378V9.2208L4.72949 5.86133H4.8668Z" fill="#BC8C0F"/>
<path d="M5.00449 5.86133L10.7224 9.06675V9.14378L4.86719 5.86133H5.00449Z" fill="#BB8B0F"/>
<path d="M5.14121 5.86133L10.7218 8.98973V9.06675L5.00391 5.86133H5.14121Z" fill="#BA8A0F"/>
<path d="M5.27814 5.86133L10.7222 8.91344V8.98973L5.1416 5.86133H5.27814Z" fill="#B9890F"/>
<path d="M5.41562 5.86133L10.7224 8.83642V8.91344L5.27832 5.86133H5.41562Z" fill="#B9880F"/>
<path d="M5.55234 5.86133L10.7218 8.75939V8.83642L5.41504 5.86133H5.55234Z" fill="#B8870F"/>
<path d="M5.68927 5.86133L10.7222 8.68237V8.75939L5.55273 5.86133H5.68927Z" fill="#B7860F"/>
<path d="M10.7214 8.68237L5.68848 5.86133H10.7214V8.68237Z" fill="#B7860F"/>
<path d="M0.683594 9.78925L1.04745 9.17676L10.8044 14.647L10.1522 15.7439H0.683594V9.78925Z" fill="#FFD700"/>
<path d="M1.08218 9.11902L1.04785 9.17676L10.8049 14.6463L10.8392 14.5885L1.08218 9.11902Z" fill="#FFD700"/>
<path d="M1.11635 9.06142L1.08203 9.11914L10.8391 14.5887L10.8734 14.5309L1.11635 9.06142Z" fill="#FFD600"/>
<path d="M1.15053 9.0038L1.11621 9.06152L10.8733 14.531L10.9076 14.4733L1.15053 9.0038Z" fill="#FED500"/>
<path d="M1.18374 8.94716L1.14941 9.00488L10.9065 14.4744L10.9408 14.4167L1.18374 8.94716Z" fill="#FDD400"/>
<path d="M1.18457 8.94644L1.2189 8.88867L10.9605 14.35V14.3834L10.9415 14.416L1.18457 8.94644Z" fill="#FCD300"/>
<path d="M1.21973 8.88808L1.25405 8.83105L10.9614 14.2724V14.3494L1.21973 8.88808Z" fill="#FAD200"/>
<path d="M1.25391 8.83023L1.28823 8.77246L10.9612 14.1953V14.2716L1.25391 8.83023Z" fill="#F9D000"/>
<path d="M1.28809 8.77261L1.32241 8.71484L10.9611 14.1184V14.1955L1.28809 8.77261Z" fill="#F8CF00"/>
<path d="M1.32227 8.715L1.35583 8.65723L10.9609 14.0416V14.1186L1.32227 8.715Z" fill="#F7CE00"/>
<path d="M1.35547 8.65738L1.38979 8.59961L10.9606 13.9647V14.0417L1.35547 8.65738Z" fill="#F6CD01"/>
<path d="M1.38965 8.6L1.42397 8.54297L10.9604 13.8888V13.9651L1.38965 8.6Z" fill="#F5CC01"/>
<path d="M1.4248 8.54214L1.45913 8.48438L10.9613 13.8109V13.888L1.4248 8.54214Z" fill="#F4CB02"/>
<path d="M1.45801 8.48453L1.49233 8.42676L10.9601 13.7341V13.8111L1.45801 8.48453Z" fill="#F3CA02"/>
<path d="M1.49316 8.42789L1.52749 8.37012L10.961 13.6582V13.7352L1.49316 8.42789Z" fill="#F2C802"/>
<path d="M1.52734 8.36929L1.56167 8.31152L10.9608 13.5811V13.6574L1.52734 8.36929Z" fill="#F1C703"/>
<path d="M1.56152 8.31265L1.59585 8.25488L10.9607 13.5052V13.5822L1.56152 8.31265Z" fill="#F0C603"/>
<path d="M1.5957 8.25429L1.63003 8.19727L10.9605 13.4276V13.5046L1.5957 8.25429Z" fill="#EFC503"/>
<path d="M1.62988 8.19644L1.66421 8.13867L10.9604 13.3497V13.4267L1.62988 8.19644Z" fill="#EEC404"/>
<path d="M1.66406 8.13882L1.69839 8.08105L10.9602 13.2728V13.3499L1.66406 8.13882Z" fill="#EDC304"/>
<path d="M1.69824 8.08218L1.73257 8.02441L10.9601 13.1977V13.274L1.69824 8.08218Z" fill="#ECC105"/>
<path d="M1.7334 8.02359L1.76772 7.96582L10.9609 13.1198V13.1969L1.7334 8.02359Z" fill="#EBC005"/>
<path d="M1.76758 7.96597L1.8019 7.9082L10.9608 13.043V13.12L1.76758 7.96597Z" fill="#EABF05"/>
<path d="M1.80176 7.90761L1.83608 7.85059L10.9606 12.9653V13.0424L1.80176 7.90761Z" fill="#E9BE06"/>
<path d="M1.83594 7.85074L1.8695 7.79297L10.9605 12.8892V12.9655L1.83594 7.85074Z" fill="#E8BD06"/>
<path d="M1.87012 7.7941L1.90444 7.73633L10.9611 12.8133V12.8903L1.87012 7.7941Z" fill="#E7BC06"/>
<path d="M1.9043 7.7355L1.93862 7.67773L10.961 12.7355V12.8125L1.9043 7.7355Z" fill="#E6BB06"/>
<path d="M1.93848 7.67691L1.9728 7.61914L10.9608 12.6576V12.7346L1.93848 7.67691Z" fill="#E5BA07"/>
<path d="M1.97363 7.61953L2.00796 7.5625L10.9616 12.581V12.658L1.97363 7.61953Z" fill="#E4B807"/>
<path d="M2.00684 7.56363L2.04116 7.50586L10.9605 12.5058V12.5821L2.00684 7.56363Z" fill="#E3B707"/>
<path d="M2.04102 7.50406L2.07534 7.44629L10.9604 12.427V12.504L2.04102 7.50406Z" fill="#E2B608"/>
<path d="M2.0752 7.44742L2.10952 7.38965L10.9602 12.3511V12.4281L2.0752 7.44742Z" fill="#E1B508"/>
<path d="M2.10938 7.3898L2.1437 7.33203L10.9601 12.2742V12.3512L2.10938 7.3898Z" fill="#E0B408"/>
<path d="M2.14453 7.33218L2.17886 7.27441L10.9609 12.1981V12.2744L2.14453 7.33218Z" fill="#DFB309"/>
<path d="M2.17871 7.2748L2.21304 7.21777L10.9608 12.1214V12.1985L2.17871 7.2748Z" fill="#DEB209"/>
<path d="M2.21289 7.21597L2.24722 7.1582L10.9606 12.0426V12.1196L2.21289 7.21597Z" fill="#DDB109"/>
<path d="M2.24707 7.16031L2.2814 7.10254L10.9605 11.9677V12.0447L2.24707 7.16031Z" fill="#DCB009"/>
<path d="M2.28125 7.10171L2.31558 7.04395L10.9603 11.8906V11.9669L2.28125 7.10171Z" fill="#DBAF0A"/>
<path d="M2.31641 7.0441L2.34997 6.98633L10.9612 11.8137V11.8907L2.31641 7.0441Z" fill="#DAAE0A"/>
<path d="M2.34961 6.9855L2.38394 6.92773L10.9608 11.7359V11.8129L2.34961 6.9855Z" fill="#D9AC0A"/>
<path d="M2.38379 6.92812L2.41811 6.87109L10.9607 11.6592V11.7363L2.38379 6.92812Z" fill="#D8AB0A"/>
<path d="M2.41797 6.87027L2.45229 6.8125L10.9605 11.5821V11.6584L2.41797 6.87027Z" fill="#D7AA0B"/>
<path d="M2.45312 6.81363L2.48745 6.75586L10.9613 11.5062V11.5832L2.45312 6.81363Z" fill="#D6A90B"/>
<path d="M2.4873 6.75503L2.52163 6.69727L10.9612 11.4284V11.5054L2.4873 6.75503Z" fill="#D5A80B"/>
<path d="M2.52148 6.69742L2.55581 6.63965L10.961 11.3515V11.4285L2.52148 6.69742Z" fill="#D4A70B"/>
<path d="M2.55566 6.6398L2.58999 6.58203L10.9609 11.2754V11.3517L2.55566 6.6398Z" fill="#D3A60B"/>
<path d="M2.58984 6.58242L2.62417 6.52539L10.9608 11.1987V11.2758L2.58984 6.58242Z" fill="#D2A50C"/>
<path d="M2.625 6.52554L2.65933 6.46777L10.9616 11.1219V11.1989L2.625 6.52554Z" fill="#D1A40C"/>
<path d="M2.65918 6.46695L2.69351 6.40918L10.9614 11.044V11.121L2.65918 6.46695Z" fill="#D0A30C"/>
<path d="M2.69336 6.40933L2.72769 6.35156L10.9613 10.9679V11.0442L2.69336 6.40933Z" fill="#D0A20C"/>
<path d="M2.72754 6.35171L2.76186 6.29395L10.9611 10.891V10.968L2.72754 6.35171Z" fill="#CFA10C"/>
<path d="M2.76172 6.2941L2.79604 6.23633L10.961 10.8141V10.8912L2.76172 6.2941Z" fill="#CEA00D"/>
<path d="M2.7959 6.23672L2.83022 6.17969L10.9609 10.7375V10.8145L2.7959 6.23672Z" fill="#CD9F0D"/>
<path d="M2.83008 6.17984L2.8644 6.12207L10.9607 10.6606V10.7376L2.83008 6.17984Z" fill="#CC9E0D"/>
<path d="M2.86523 6.12222L2.8988 6.06445L10.9615 10.5845V10.6608L2.86523 6.12222Z" fill="#CB9D0D"/>
<path d="M2.89746 6.06363L2.93179 6.00586L10.9602 10.5066V10.5837L2.89746 6.06363Z" fill="#CA9C0D"/>
<path d="M2.93164 6.00601L2.96597 5.94824L10.9601 10.4298V10.5068L2.93164 6.00601Z" fill="#C99B0D"/>
<path d="M2.9668 5.94765L3.00112 5.89062L10.9609 10.3521V10.4292L2.9668 5.94765Z" fill="#C89A0E"/>
<path d="M3.00098 5.89078L3.0353 5.83301L10.9607 10.276V10.3523L3.00098 5.89078Z" fill="#C7990E"/>
<path d="M3.03516 5.83218L3.06948 5.77441L10.9606 10.1982V10.2752L3.03516 5.83218Z" fill="#C6980E"/>
<path d="M3.06934 5.77457L3.10366 5.7168L10.9604 10.1213V10.1983L3.06934 5.77457Z" fill="#C6970E"/>
<path d="M3.10352 5.71792L3.13784 5.66016L10.9603 10.0454V10.1224L3.10352 5.71792Z" fill="#C5960E"/>
<path d="M3.13867 5.66031L3.173 5.60254L10.9611 9.96852V10.0455L3.13867 5.66031Z" fill="#C4950E"/>
<path d="M3.17285 5.60293L3.20718 5.5459L10.961 9.89262V9.96891L3.17285 5.60293Z" fill="#C3940E"/>
<path d="M3.20703 5.54507L3.24136 5.4873L10.9608 9.81477V9.8918L3.20703 5.54507Z" fill="#C2930E"/>
<path d="M3.24121 5.48746L3.27554 5.42969L10.9607 9.7379V9.81492L3.24121 5.48746Z" fill="#C1920E"/>
<path d="M3.27539 5.42988L3.29827 5.39062H3.34175L10.9605 9.66181V9.73809L3.27539 5.42988Z" fill="#C0910F"/>
<path d="M3.4791 5.39062L10.9606 9.58478V9.66181L3.3418 5.39062H3.4791Z" fill="#BF900F"/>
<path d="M3.61582 5.39062L10.96 9.50776V9.58478L3.47852 5.39062H3.61582Z" fill="#BF8F0F"/>
<path d="M3.75351 5.39062L10.9604 9.43073V9.50776L3.61621 5.39062H3.75351Z" fill="#BE8E0F"/>
<path d="M3.89045 5.39062L10.9608 9.35371V9.43073L3.75391 5.39062H3.89045Z" fill="#BD8D0F"/>
<path d="M4.02793 5.39062L10.961 9.27742V9.35371L3.89062 5.39062H4.02793Z" fill="#BC8C0F"/>
<path d="M4.16465 5.39062L10.9604 9.2004V9.27742L4.02734 5.39062H4.16465Z" fill="#BB8B0F"/>
<path d="M4.30234 5.39062L10.9608 9.12337V9.2004L4.16504 5.39062H4.30234Z" fill="#BA8A0F"/>
<path d="M4.43927 5.39062L10.9612 9.04635V9.12337L4.30273 5.39062H4.43927Z" fill="#B9890F"/>
<path d="M4.57578 5.39062L10.9604 8.97006V9.04635L4.43848 5.39062H4.57578Z" fill="#B9880F"/>
<path d="M4.71348 5.39062L10.9608 8.89304V8.97006L4.57617 5.39062H4.71348Z" fill="#B8870F"/>
<path d="M4.84943 5.39062L10.9602 8.81601V8.89304L4.71289 5.39062H4.84943Z" fill="#B7860F"/>
<path d="M10.9604 8.81601L4.84961 5.39062H10.9604V8.81601Z" fill="#B7860F"/>
</g>
<mask id="mask1_1066_22080" style="mask-type:luminance" maskUnits="userSpaceOnUse" x="5" y="0" width="12" height="13">
<path d="M10.9066 12.6859C10.8981 12.6948 10.8879 12.702 10.8765 12.7068C10.865 12.7117 10.8527 12.7142 10.8402 12.7142C10.8277 12.7142 10.8154 12.7117 10.804 12.7068C10.7925 12.702 10.7823 12.6948 10.7738 12.6859C10.2742 12.2082 6.95987 9.09313 5.9179 7.89554C5.73601 7.68567 5.56737 7.46529 5.41292 7.23564C5.17174 6.87612 5.06382 6.44759 5.10694 6.02059C5.15006 5.59358 5.34165 5.19356 5.65015 4.88638C6.89656 3.64657 8.33748 2.2653 9.38785 1.27138C9.77666 0.901503 10.2993 0.694336 10.8436 0.694336C11.388 0.694336 11.9106 0.901503 12.2994 1.27138C13.3467 2.2653 14.7884 3.64731 16.0371 4.88712C16.3463 5.19478 16.5381 5.59571 16.5807 6.02359C16.6233 6.45146 16.5141 6.88063 16.2713 7.24008C16.1173 7.46822 15.9491 7.68711 15.7679 7.89554C14.732 9.09313 11.4146 12.2082 10.9066 12.6859Z" fill="white"/>
</mask>
<g mask="url(#mask1_1066_22080)">
<path d="M16.7664 2.21599L11.6084 0.50293H16.7664V2.21599Z" fill="#DC153D"/>
<path d="M16.7664 2.35005L11.2041 0.50293H11.6084L16.7664 2.21599V2.35005Z" fill="#DC153D"/>
<path d="M16.7666 2.48484L10.8008 0.50293H11.2043L16.7666 2.35005V2.48484Z" fill="#DB163C"/>
<path d="M16.7666 2.61889L10.3965 0.50293H10.8008L16.7666 2.48484V2.61889Z" fill="#DA163C"/>
<path d="M16.7666 2.75295L9.99219 0.50293H10.3965L16.7666 2.61889V2.75295Z" fill="#D9163B"/>
<path d="M16.7668 2.887L9.58887 0.50293H9.99239L16.7668 2.75295V2.887Z" fill="#D8163B"/>
<path d="M16.7668 3.02105L9.18457 0.50293H9.58885L16.7668 2.887V3.02105Z" fill="#D7163A"/>
<path d="M16.7667 3.15585L8.78027 0.50293H9.18455L16.7667 3.02105V3.15585Z" fill="#D61639"/>
<path d="M16.766 3.2899L8.37598 0.50293H8.7795L16.766 3.15585V3.2899Z" fill="#D51639"/>
<path d="M16.7669 3.42395L7.97266 0.50293H8.37694L16.7669 3.2899V3.42395Z" fill="#D41738"/>
<path d="M16.7659 3.55801L7.56738 0.50293H7.97166L16.7659 3.42395V3.55801Z" fill="#D31738"/>
<path d="M16.7671 3.69206L7.16504 0.50293H7.56856L16.7671 3.55801V3.69206Z" fill="#D11737"/>
<path d="M16.7671 3.82611L6.76074 0.50293H7.16502L16.7671 3.69206V3.82611Z" fill="#D01736"/>
<path d="M16.7671 3.96091L6.59375 0.581436L6.62121 0.50293H6.7608L16.7671 3.82611V3.96091Z" fill="#CF1736"/>
<path d="M16.7671 4.09555L6.55176 0.702753L6.59371 0.582031L16.7671 3.9615V4.09555Z" fill="#CE1735"/>
<path d="M16.7669 4.22803L6.50879 0.821153L6.55151 0.701172L16.7669 4.09397V4.22803Z" fill="#CD1735"/>
<path d="M16.7658 4.36319L6.46582 0.942247L6.50777 0.822266L16.7658 4.22914V4.36319Z" fill="#CC1734"/>
<path d="M16.7666 4.49738L6.42383 1.06236L6.46654 0.942383L16.7666 4.36333V4.49738Z" fill="#CB1734"/>
<path d="M16.7675 4.63133L6.38281 1.1815L6.42477 1.06152L16.7675 4.49654V4.63133Z" fill="#CA1733"/>
<path d="M16.7663 4.7665L6.33887 1.30334L6.38158 1.18262L16.7663 4.63245V4.7665Z" fill="#C91832"/>
<path d="M16.7672 4.89995L6.29785 1.42272L6.33981 1.30273L16.7672 4.76589V4.89995Z" fill="#C81832"/>
<path d="M16.766 5.03414L6.25391 1.54283L6.29662 1.42285L16.766 4.90008V5.03414Z" fill="#C71831"/>
<path d="M16.7669 5.16833L6.21289 1.66295L6.25484 1.54297L16.7669 5.03427V5.16833Z" fill="#C61831"/>
<path d="M16.7667 5.30251L6.16992 1.78381L6.21264 1.66309L16.7667 5.16846V5.30251Z" fill="#C51830"/>
<path d="M16.7666 5.43768L6.12793 1.90416L6.16988 1.78418L16.7666 5.30289V5.43768Z" fill="#C41830"/>
<path d="M16.7674 5.57187L6.08594 2.02428L6.12865 1.9043L16.7674 5.43782V5.57187Z" fill="#C3182F"/>
<path d="M16.7663 5.70508L6.04297 2.14342L6.08492 2.02344L16.7663 5.57103V5.70508Z" fill="#C2182E"/>
<path d="M16.7671 5.84025L6.00098 2.26451L6.04369 2.14453L16.7671 5.7062V5.84025Z" fill="#C1182E"/>
<path d="M16.767 5.97346L5.95898 2.38439L6.00094 2.26367L16.767 5.83941V5.97346Z" fill="#C0182D"/>
<path d="M16.7668 6.10765L5.91602 2.50377L5.95873 2.38379L16.7668 5.97286V6.10765Z" fill="#BF182D"/>
<path d="M16.7667 6.24184L5.87402 2.62389L5.91598 2.50391L16.7667 6.10779V6.24184Z" fill="#BE182C"/>
<path d="M16.7665 6.377L5.83105 2.74498L5.87377 2.625L16.7665 6.24295V6.377Z" fill="#BD182C"/>
<path d="M16.7664 6.50924L5.78906 2.86315L5.83102 2.74316L16.7664 6.37519V6.50924Z" fill="#BC182B"/>
<path d="M16.7664 6.64538L5.74707 2.98522L5.78902 2.86523L16.7664 6.51133V6.64538Z" fill="#BB192A"/>
<path d="M16.7662 6.77934L5.7041 3.1051L5.74682 2.98438L16.7662 6.64454V6.77934Z" fill="#BA192A"/>
<path d="M16.7671 6.91278L5.66309 3.22447L5.70504 3.10449L16.7671 6.77873V6.91278Z" fill="#B91929"/>
<path d="M16.7659 6.95662L16.7376 7.03734L5.61914 3.34459L5.66186 3.22461L16.7659 6.91292V6.95662Z" fill="#B81929"/>
<path d="M5.59982 3.33037L5.55762 3.4502L16.6763 7.1421L16.7185 7.02227L5.59982 3.33037Z" fill="#B71928"/>
<path d="M5.55783 3.45146L5.51562 3.57129L16.6343 7.2632L16.6765 7.14337L5.55783 3.45146Z" fill="#B61928"/>
<path d="M5.51584 3.56962L5.47363 3.68945L16.5923 7.38136L16.6345 7.26153L5.51584 3.56962Z" fill="#B51927"/>
<path d="M5.47189 3.69169L5.42969 3.81152L16.5483 7.50343L16.5905 7.3836L5.47189 3.69169Z" fill="#B41927"/>
<path d="M5.43186 3.81082L5.38965 3.93066L16.5083 7.62257L16.5505 7.50272L5.43186 3.81082Z" fill="#B31926"/>
<path d="M5.38889 3.93095L5.34668 4.05078L16.4653 7.74269L16.5075 7.62286L5.38889 3.93095Z" fill="#B31926"/>
<path d="M5.34592 4.05107L5.30371 4.1709L16.4223 7.86281L16.4646 7.74298L5.34592 4.05107Z" fill="#B21925"/>
<path d="M5.30393 4.17119L5.26172 4.29102L16.3804 7.98292L16.4226 7.86309L5.30393 4.17119Z" fill="#B11925"/>
<path d="M5.26193 4.29228L5.21973 4.41211L16.3384 8.10402L16.3806 7.98419L5.26193 4.29228Z" fill="#B01924"/>
<path d="M5.21994 4.41337L5.17773 4.5332L16.2964 8.22511L16.3386 8.10528L5.21994 4.41337Z" fill="#AF1924"/>
<path d="M5.17697 4.53251L5.13477 4.65234L16.2534 8.34425L16.2956 8.22442L5.17697 4.53251Z" fill="#AE1923"/>
<path d="M5.134 4.65263L5.0918 4.77246L16.2104 8.46437L16.2526 8.34454L5.134 4.65263Z" fill="#AD1923"/>
<path d="M5.09201 4.77177L5.0498 4.8916L16.1684 8.58351L16.2106 8.46368L5.09201 4.77177Z" fill="#AC1922"/>
<path d="M5.05003 4.89285L5.00781 5.0127L16.1264 8.7046L16.1687 8.58476L5.05003 4.89285Z" fill="#AB1922"/>
<path d="M5.00803 5.01201L4.96582 5.13184L16.0845 8.82374L16.1267 8.70391L5.00803 5.01201Z" fill="#AA1921"/>
<path d="M4.96506 5.1331L4.92285 5.25293L16.0415 8.94484L16.0837 8.82501L4.96506 5.1331Z" fill="#A91921"/>
<path d="M16.0609 8.95935L16.0182 9.08008L4.91797 5.39325V5.33696L4.94238 5.2666L16.0609 8.95935Z" fill="#A81920"/>
<path d="M16.0182 9.08038L15.9762 9.20037L4.91797 5.52761V5.39355L16.0182 9.08038Z" fill="#A71920"/>
<path d="M15.9762 9.2001L15.9343 9.32008L4.91797 5.6614V5.52734L15.9762 9.2001Z" fill="#A6191F"/>
<path d="M15.9343 9.32079L15.8915 9.44078L4.91797 5.79616V5.66211L15.9343 9.32079Z" fill="#A5191F"/>
<path d="M15.8915 9.44051L15.8496 9.56049L4.91797 5.92995V5.7959L15.8915 9.44051Z" fill="#A4191E"/>
<path d="M15.8496 9.56023L15.8069 9.68095L4.91797 6.06374V5.92969L15.8496 9.56023Z" fill="#A3191E"/>
<path d="M15.8069 9.68166L15.7649 9.80164L4.91797 6.19925V6.06445L15.8069 9.68166Z" fill="#A2191D"/>
<path d="M15.7649 9.80064L15.7222 9.92062L4.91797 6.3323V6.19824L15.7649 9.80064Z" fill="#A1191D"/>
<path d="M15.7222 9.92036L15.6802 10.0403L4.91797 6.46608V6.33203L15.7222 9.92036Z" fill="#A0191D"/>
<path d="M15.6802 10.0411L15.6375 10.161L4.91797 6.60085V6.4668L15.6802 10.0411Z" fill="#9F191C"/>
<path d="M15.6375 10.1608L15.5956 10.2815L4.91797 6.73464V6.60059L15.6375 10.1608Z" fill="#9E191C"/>
<path d="M15.5956 10.2822L15.5529 10.4022L4.91797 6.87015V6.73535L15.5956 10.2822Z" fill="#9E191B"/>
<path d="M15.5529 10.4012L15.5109 10.5212L4.91797 7.00319V6.86914L15.5529 10.4012Z" fill="#9D191B"/>
<path d="M15.5109 10.5219L15.4682 10.6419L4.91797 7.13796V7.00391L15.5109 10.5219Z" fill="#9C191A"/>
<path d="M15.4682 10.6416L15.4262 10.7623L4.91797 7.27175V7.1377L15.4682 10.6416Z" fill="#9B191A"/>
<path d="M15.4262 10.763L15.3835 10.883L4.91797 7.40651V7.27246L15.4262 10.763Z" fill="#9A1919"/>
<path d="M15.3835 10.8818L15.3416 11.0017L4.91797 7.54007V7.40527L15.3835 10.8818Z" fill="#991919"/>
<path d="M15.3416 11.0017L15.2988 11.1217L4.91797 7.67409V7.54004L15.3416 11.0017Z" fill="#981919"/>
<path d="M15.2988 11.1224L15.2569 11.2424L4.91797 7.80886V7.6748L15.2988 11.1224Z" fill="#971918"/>
<path d="M15.2569 11.2421L15.2142 11.3621L4.91797 7.94265V7.80859L15.2569 11.2421Z" fill="#961918"/>
<path d="M15.2142 11.3628L15.1722 11.4835L4.91797 8.07741V7.94336L15.2142 11.3628Z" fill="#951917"/>
<path d="M15.1722 11.4823L15.1295 11.6023L4.91797 8.21023V8.07617L15.1722 11.4823Z" fill="#951917"/>
<path d="M15.1295 11.603L15.0876 11.723L4.91797 8.34573V8.21094L15.1295 11.603Z" fill="#941916"/>
<path d="M15.0876 11.723L15.0448 11.8429L4.91797 8.47976V8.3457L15.0876 11.723Z" fill="#931916"/>
<path d="M15.0448 11.8436L15.0029 11.9644L4.91797 8.61452V8.48047L15.0448 11.8436Z" fill="#921916"/>
<path d="M15.0029 11.9631L14.9602 12.0831L4.91797 8.74733V8.61328L15.0029 11.9631Z" fill="#911815"/>
<path d="M14.9602 12.0838L14.9182 12.2038L4.91797 8.8821V8.74805L14.9602 12.0838Z" fill="#901815"/>
<path d="M14.9182 12.2026L14.8755 12.3225L4.91797 9.01565V8.88086L14.9182 12.2026Z" fill="#8F1814"/>
<path d="M14.8755 12.3235L14.8335 12.4435L4.91797 9.15065V9.0166L14.8755 12.3235Z" fill="#8E1814"/>
<path d="M14.8335 12.4432L14.7908 12.5632L4.91797 9.28444V9.15039L14.8335 12.4432Z" fill="#8D1813"/>
<path d="M14.7908 12.5629L14.7489 12.6836L4.91797 9.41823V9.28418L14.7908 12.5629Z" fill="#8D1813"/>
<path d="M14.7489 12.6844L14.7344 12.7251H14.4689L4.91797 9.553V9.41895L14.7489 12.6844Z" fill="#8C1812"/>
<path d="M14.0646 12.7248L4.91797 9.68679V9.55273L14.4689 12.7248H14.0646Z" fill="#8B1812"/>
<path d="M4.91797 9.68652L14.0646 12.7246H4.91797V9.68652Z" fill="#8B1812"/>
</g>
<mask id="mask2_1066_22080" style="mask-type:luminance" maskUnits="userSpaceOnUse" x="4" y="0" width="13" height="13">
<path d="M10.8408 12.8262C10.8133 12.8259 10.7861 12.8203 10.7608 12.8097C10.7355 12.7992 10.7127 12.7839 10.6935 12.7647L10.3968 12.4832C9.39908 11.5367 6.74683 9.02379 5.83148 7.96544C5.64628 7.752 5.47483 7.52766 5.31812 7.2937C5.06092 6.91372 4.94555 6.45967 4.99121 6.00715C5.03687 5.55463 5.24082 5.13095 5.56908 4.80667C6.84295 3.53946 8.3037 2.14043 9.30678 1.18947C9.71554 0.796569 10.2675 0.576172 10.8427 0.576172C11.4178 0.576172 11.9698 0.796569 12.3786 1.18947C13.3793 2.14043 14.8409 3.53946 16.1162 4.80741C16.4455 5.13212 16.6499 5.55681 16.6952 6.01037C16.7405 6.46393 16.6239 6.91883 16.3649 7.29888C16.2083 7.53089 16.0374 7.75349 15.8531 7.96544C15.2047 8.71939 13.4945 10.4095 11.0383 12.7188L10.9903 12.7639C10.9709 12.7836 10.9477 12.7992 10.9221 12.8099C10.8964 12.8206 10.8687 12.8261 10.8408 12.8262ZM10.8408 0.798413C10.3265 0.799432 9.83333 0.99683 9.46773 1.34796C8.46695 2.29744 7.00771 3.69574 5.73537 4.96073C5.44361 5.24915 5.26235 5.62585 5.22169 6.02819C5.18103 6.43052 5.28342 6.83425 5.51187 7.17223C5.66375 7.39803 5.82958 7.61469 6.00845 7.82102C6.91694 8.869 9.56307 11.376 10.5593 12.3211L10.8431 12.5914L10.8789 12.5581C13.3298 10.2517 15.0338 8.56979 15.6776 7.81805C15.856 7.6128 16.0216 7.39739 16.1735 7.17297C16.4037 6.83518 16.5073 6.43083 16.4671 6.02767C16.4268 5.62451 16.245 5.24704 15.9523 4.9585C14.6791 3.69204 13.2191 2.29225 12.2191 1.34425C11.851 0.994507 11.3558 0.799497 10.8408 0.801379V0.798413Z" fill="white"/>
</mask>
<g mask="url(#mask2_1066_22080)">
<path d="M16.6451 1.53918L12.333 0.800781H16.6451V1.53918Z" fill="#FFD700"/>
<path d="M16.6456 1.69842L11.4014 0.800781H12.3335L16.6456 1.53918V1.69842Z" fill="#FFD700"/>
<path d="M16.6451 1.85765L10.4688 0.800781H11.4009L16.6451 1.69842V1.85765Z" fill="#FFD600"/>
<path d="M16.6448 2.01763L9.53711 0.800781H10.4685L16.6448 1.85765V2.01763Z" fill="#FED500"/>
<path d="M16.6446 2.17686L8.60547 0.800781H9.53684L16.6446 2.01763V2.17686Z" fill="#FDD400"/>
<path d="M16.646 2.33684L7.6748 0.800781H8.60694L16.646 2.17686V2.33684Z" fill="#FCD300"/>
<path d="M16.6456 2.49607L6.74219 0.800781H7.67432L16.6456 2.33684V2.49607Z" fill="#FAD200"/>
<path d="M16.6458 2.6553L5.84082 0.805966L5.84158 0.800781H6.74244L16.6458 2.49607V2.6553Z" fill="#F9D000"/>
<path d="M16.6447 2.81596L5.81152 0.961431L5.83975 0.806641L16.6447 2.65598V2.81596Z" fill="#F8CF00"/>
<path d="M16.6446 2.97567L5.7832 1.1167L5.81143 0.961914L16.6446 2.81644V2.97567Z" fill="#F7CE00"/>
<path d="M16.6448 3.13441L5.75586 1.27026L5.78332 1.11621L16.6448 2.97518V3.13441Z" fill="#F6CD01"/>
<path d="M16.6456 3.29463L5.72852 1.4253L5.75674 1.27051L16.6456 3.13466V3.29463Z" fill="#F5CC01"/>
<path d="M16.6455 3.45338L5.7002 1.5796L5.72842 1.4248L16.6455 3.29414V3.45338Z" fill="#F4CB02"/>
<path d="M16.6454 3.61383L5.67188 1.73487L5.7001 1.58008L16.6454 3.45386V3.61383Z" fill="#F3CA02"/>
<path d="M16.6453 3.77355L5.64355 1.89014L5.67178 1.73535L16.6453 3.61432V3.77355Z" fill="#F2C802"/>
<path d="M16.6443 3.93131L5.61426 2.04346L5.64248 1.88867L16.6443 3.77208V3.93131Z" fill="#F1C703"/>
<path d="M16.6452 4.09275L5.58691 2.19971L5.61514 2.04492L16.6452 3.93277V4.09275Z" fill="#F0C603"/>
<path d="M16.6453 4.25149L5.55957 2.35401L5.58703 2.19922L16.6453 4.09226V4.25149Z" fill="#EFC503"/>
<path d="M16.6452 4.41195L5.53125 2.50928L5.55947 2.35449L16.6452 4.25197V4.41195Z" fill="#EEC404"/>
<path d="M16.6461 4.57069L5.50391 2.66284L5.53213 2.50879L16.6461 4.41145V4.57069Z" fill="#EDC304"/>
<path d="M16.645 4.73017L5.47461 2.81788L5.50283 2.66309L16.645 4.57093V4.73017Z" fill="#ECC105"/>
<path d="M16.6449 4.89063L5.44629 2.97315L5.47451 2.81836L16.6449 4.73065V4.89063Z" fill="#EBC005"/>
<path d="M16.645 5.04937L5.41895 3.12745L5.44641 2.97266L16.645 4.89013V5.04937Z" fill="#EABF05"/>
<path d="M16.6449 5.20787L5.39062 3.28077L5.41885 3.12598L16.6449 5.0479V5.20787Z" fill="#E9BE06"/>
<path d="M16.6458 5.36857L5.36328 3.43702L5.3915 3.28223L16.6458 5.20933V5.36857Z" fill="#E8BD06"/>
<path d="M16.6457 5.52731L5.33496 3.59131L5.36318 3.43652L16.6457 5.36807V5.52731Z" fill="#E7BC06"/>
<path d="M16.6456 5.68679L5.30664 3.74561L5.33486 3.59082L16.6456 5.52681V5.68679Z" fill="#E6BB06"/>
<path d="M16.6455 5.8465L5.27832 3.90088L5.30654 3.74609L16.6455 5.68727V5.8465Z" fill="#E5BA07"/>
<path d="M16.6456 6.00622L5.25098 4.05542L5.27844 3.90137L16.6456 5.84699V6.00622Z" fill="#E4B807"/>
<path d="M16.6455 6.16547L5.22266 4.20948L5.25088 4.05469L16.6455 6.00549V6.16547Z" fill="#E3B707"/>
<path d="M16.6454 6.32518L5.19434 4.36475L5.22256 4.20996L16.6454 6.16595V6.32518Z" fill="#E2B608"/>
<path d="M16.6453 6.48564L5.16602 4.52002L5.19424 4.36523L16.6453 6.32567V6.48564Z" fill="#E1B508"/>
<path d="M16.6452 6.64438L5.1377 4.67432L5.16592 4.51953L16.6452 6.48515V6.64438Z" fill="#E0B408"/>
<path d="M16.6451 6.80312L5.10938 4.82862L5.1376 4.67383L16.6451 6.64389V6.80312Z" fill="#DFB309"/>
<path d="M16.6452 6.96358L5.08203 4.98389L5.10949 4.8291L16.6452 6.80361V6.96358Z" fill="#DEB209"/>
<path d="M16.6451 7.12232L5.05371 5.13819L5.08193 4.9834L16.6451 6.96309V7.12232Z" fill="#DDB109"/>
<path d="M16.645 7.28278L5.03906 5.29568V5.21496L5.05356 5.13867L16.645 7.1228V7.28278Z" fill="#DCB009"/>
<path d="M16.645 7.32965L16.6252 7.43853L5.03906 5.45513V5.2959L16.645 7.28299V7.32965Z" fill="#DBAF0A"/>
<path d="M16.6252 7.43749L16.5969 7.59229L5.03906 5.61408V5.4541L16.6252 7.43749Z" fill="#DAAE0A"/>
<path d="M16.5969 7.59247L16.5687 7.74726L5.03906 5.77349V5.61426L16.5969 7.59247Z" fill="#D9AC0A"/>
<path d="M16.5687 7.74818L16.5405 7.90297L5.03906 5.93365V5.77441L16.5687 7.74818Z" fill="#D8AB0A"/>
<path d="M16.5405 7.90194L16.5123 8.05673L5.03906 6.09259V5.93262L16.5405 7.90194Z" fill="#D7AA0B"/>
<path d="M16.5123 8.05691L16.484 8.2117L5.03906 6.25201V6.09277L16.5123 8.05691Z" fill="#D6A90B"/>
<path d="M16.484 8.21165L16.4566 8.36644L5.03906 6.41193V6.25195L16.484 8.21165Z" fill="#D5A80B"/>
<path d="M16.4566 8.36564L16.4284 8.51969L5.03906 6.57037V6.41113L16.4566 8.36564Z" fill="#D4A70B"/>
<path d="M16.4284 8.52159L16.4001 8.67638L5.03906 6.7315V6.57227L16.4284 8.52159Z" fill="#D3A60B"/>
<path d="M16.4001 8.67632L16.3719 8.83112L5.03906 6.89142V6.73145L16.4001 8.67632Z" fill="#D2A50C"/>
<path d="M16.3719 8.83032L16.3437 8.98511L5.03906 7.04986V6.89062L16.3719 8.83032Z" fill="#D1A40C"/>
<path d="M16.3437 8.98506L16.3155 9.13985L5.03906 7.20978V7.0498L16.3437 8.98506Z" fill="#D0A30C"/>
<path d="M16.3155 9.14003L16.288 9.29482L5.03906 7.36919V7.20996L16.3155 9.14003Z" fill="#D0A20C"/>
<path d="M16.288 9.29574L16.2598 9.45053L5.03906 7.52935V7.37012L16.288 9.29574Z" fill="#CFA10C"/>
<path d="M16.2598 9.45048L16.2316 9.60527L5.03906 7.68927V7.5293L16.2598 9.45048Z" fill="#CEA00D"/>
<path d="M16.2316 9.60447L16.2033 9.75926L5.03906 7.84771V7.68848L16.2316 9.60447Z" fill="#CD9F0D"/>
<path d="M16.2033 9.75921L16.1751 9.914L5.03906 8.00689V7.84766L16.2033 9.75921Z" fill="#CC9E0D"/>
<path d="M16.1751 9.9159L16.1469 10.0699L5.03906 8.16876V8.00879L16.1751 9.9159Z" fill="#CB9D0D"/>
<path d="M16.1469 10.0682L16.1194 10.223L5.03906 8.32623V8.16699L16.1469 10.0682Z" fill="#CA9C0D"/>
<path d="M16.1194 10.2239L16.0912 10.3787L5.03906 8.48712V8.32715L16.1194 10.2239Z" fill="#C99B0D"/>
<path d="M16.0912 10.3779L16.063 10.5327L5.03906 8.64556V8.48633L16.0912 10.3779Z" fill="#C89A0E"/>
<path d="M16.063 10.5326L16.0347 10.6874L5.03906 8.80474V8.64551L16.063 10.5326Z" fill="#C7990E"/>
<path d="M16.0347 10.6874L16.0065 10.8421L5.03906 8.96466V8.80469L16.0347 10.6874Z" fill="#C6980E"/>
<path d="M16.0065 10.8423L15.9783 10.9971L5.03906 9.12408V8.96484L16.0065 10.8423Z" fill="#C6970E"/>
<path d="M15.9783 10.9961L15.9508 11.1509L5.03906 9.28302V9.12305L15.9783 10.9961Z" fill="#C5960E"/>
<path d="M15.9508 11.152L15.9226 11.3068L5.03906 9.44341V9.28418L15.9508 11.152Z" fill="#C4950E"/>
<path d="M15.9226 11.3068L15.8944 11.4608L5.03906 9.60259V9.44336L15.9226 11.3068Z" fill="#C3940E"/>
<path d="M15.8944 11.4598L15.8662 11.6146L5.03906 9.76154V9.60156L15.8944 11.4598Z" fill="#C2930E"/>
<path d="M15.8662 11.6157L15.838 11.7705L5.03906 9.92193V9.7627L15.8662 11.6157Z" fill="#C1920E"/>
<path d="M15.838 11.7705L15.8097 11.9253L5.03906 10.0811V9.92188L15.838 11.7705Z" fill="#C0910F"/>
<path d="M15.8097 11.9252L15.7823 12.08L5.03906 10.241V10.0811L15.8097 11.9252Z" fill="#BF900F"/>
<path d="M15.7823 12.0802L15.754 12.235L5.03906 10.4004V10.2412L15.7823 12.0802Z" fill="#BF8F0F"/>
<path d="M15.754 12.2339L15.7258 12.3887L5.03906 10.5594V10.3994L15.754 12.2339Z" fill="#BE8E0F"/>
<path d="M15.7258 12.3899L15.6976 12.5447L5.03906 10.7198V10.5605L15.7258 12.3899Z" fill="#BD8D0F"/>
<path d="M15.6976 12.5446L15.6884 12.595H15.0591L5.03906 10.879V10.7197L15.6976 12.5446Z" fill="#BC8C0F"/>
<path d="M14.1278 12.594L5.03906 11.0379V10.8779L15.0591 12.594H14.1278Z" fill="#BB8B0F"/>
<path d="M13.1956 12.5941L5.03906 11.1973V11.0381L14.1278 12.5941H13.1956Z" fill="#BA8A0F"/>
<path d="M12.2643 12.5951L5.03906 11.3575V11.1982L13.1956 12.5951H12.2643Z" fill="#B9890F"/>
<path d="M11.3321 12.595L5.03906 11.5174V11.3574L12.2643 12.595H11.3321Z" fill="#B9880F"/>
<path d="M10.4007 12.5942L5.03906 11.6758V11.5166L11.3321 12.5942H10.4007Z" fill="#B8870F"/>
<path d="M9.46861 12.5942L5.03906 11.8358V11.6758L10.4007 12.5942H9.46861Z" fill="#B7860F"/>
<path d="M5.03906 11.8359L9.46861 12.5943H5.03906V11.8359Z" fill="#B7860F"/>
<path d="M10.907 12.6815L10.8262 12.6674V12.6074H10.907V12.6815Z" fill="#B8870F"/>
<path d="M10.8262 12.666L10.907 12.6801V12.6853H10.8262V12.666Z" fill="#B7860F"/>
<path d="M16.8951 1.58272L9.83691 0.374023H16.8951V1.58272Z" fill="#FFD700"/>
<path d="M16.8956 1.74196L8.90527 0.374023H9.83741L16.8956 1.58272V1.74196Z" fill="#FFD700"/>
<path d="M16.8953 1.90119L7.97363 0.374023H8.90501L16.8953 1.74196V1.90119Z" fill="#FFD600"/>
<path d="M16.895 2.06117L7.04199 0.374023H7.97336L16.895 1.90119V2.06117Z" fill="#FED500"/>
<path d="M16.8955 2.2204L6.11035 0.374023H7.04249L16.8955 2.06117V2.2204Z" fill="#FDD400"/>
<path d="M16.8955 2.38038L5.65039 0.454752L5.66565 0.374023H6.11036L16.8955 2.2204V2.38038Z" fill="#FCD300"/>
<path d="M16.8954 2.53896L5.62207 0.608892L5.65029 0.454102L16.8954 2.37973V2.53896Z" fill="#FAD200"/>
<path d="M16.8955 2.69965L5.59473 0.765142L5.62219 0.610352L16.8955 2.54042V2.69965Z" fill="#F9D000"/>
<path d="M16.8945 2.85913L5.56543 0.919439L5.59365 0.764648L16.8945 2.69916V2.85913Z" fill="#F8CF00"/>
<path d="M16.8963 3.01788L5.53906 1.07374L5.56729 0.918945L16.8963 2.85864V3.01788Z" fill="#F7CE00"/>
<path d="M16.8952 3.17759L5.50977 1.22901L5.53799 1.07422L16.8952 3.01836V3.17759Z" fill="#F6CD01"/>
<path d="M16.8961 3.33805L5.48242 1.38354L5.51065 1.22949L16.8961 3.17807V3.33805Z" fill="#F5CC01"/>
<path d="M16.895 3.49558L5.45312 1.53663L5.48135 1.38184L16.895 3.33634V3.49558Z" fill="#F4CB02"/>
<path d="M16.8961 3.65701L5.42676 1.69288L5.45422 1.53809L16.8961 3.49704V3.65701Z" fill="#F3CA02"/>
<path d="M16.8951 3.81673L5.39746 1.84815L5.42568 1.69336L16.8951 3.6575V3.81673Z" fill="#F2C802"/>
<path d="M16.8959 3.97449L5.37012 2.00147L5.39834 1.84668L16.8959 3.81526V3.97449Z" fill="#F1C703"/>
<path d="M16.8959 4.13398L5.3418 2.15577L5.37002 2.00098L16.8959 3.974V4.13398Z" fill="#F0C603"/>
<path d="M16.8958 4.29565L5.31348 2.31299L5.3417 2.1582L16.8958 4.13641V4.29565Z" fill="#EFC503"/>
<path d="M16.8947 4.45415L5.28418 2.46631L5.3124 2.31152L16.8947 4.29418V4.45415Z" fill="#EEC404"/>
<path d="M16.8958 4.61289L5.25781 2.62061L5.28527 2.46582L16.8958 4.45366V4.61289Z" fill="#EDC304"/>
<path d="M16.8957 4.77261L5.22949 2.77514L5.25772 2.62109L16.8957 4.61337V4.77261Z" fill="#ECC105"/>
<path d="M16.8946 4.93283L5.2002 2.93018L5.22842 2.77539L16.8946 4.77286V4.93283Z" fill="#EBC005"/>
<path d="M16.8955 5.09157L5.17285 3.08448L5.20108 2.92969L16.8955 4.93234V5.09157Z" fill="#EABF05"/>
<path d="M16.8954 5.25031L5.14453 3.23877L5.17275 3.08398L16.8954 5.09108V5.25031Z" fill="#E9BE06"/>
<path d="M16.8963 5.41077L5.11719 3.39405L5.14541 3.23926L16.8963 5.25079V5.41077Z" fill="#E8BD06"/>
<path d="M16.8954 5.57146L5.08887 3.5503L5.11633 3.39551L16.8954 5.41223V5.57146Z" fill="#E7BC06"/>
<path d="M16.8953 5.72997L5.06055 3.70362L5.08877 3.54883L16.8953 5.56999V5.72997Z" fill="#E6BB06"/>
<path d="M16.8952 5.88968L5.03223 3.85889L5.06045 3.7041L16.8952 5.73045V5.88968Z" fill="#E5BA07"/>
<path d="M16.8961 6.04843L5.00488 4.01319L5.03311 3.8584L16.8961 5.88919V6.04843Z" fill="#E4B807"/>
<path d="M16.896 6.20888L4.97656 4.16846L5.00479 4.01367L16.896 6.04891V6.20888Z" fill="#E3B707"/>
<path d="M16.8959 6.36762L4.94824 4.32202L4.97647 4.16797L16.8959 6.20839V6.36762Z" fill="#E2B608"/>
<path d="M16.895 6.52613L4.91992 4.47608L4.94738 4.32129L16.895 6.36689V6.52613Z" fill="#E1B508"/>
<path d="M16.8949 6.68659L4.8916 4.63135L4.91983 4.47656L16.8949 6.52661V6.68659Z" fill="#E0B408"/>
<path d="M16.8958 6.8463L4.86426 4.78663L4.89248 4.63184L16.8958 6.68707V6.8463Z" fill="#DFB309"/>
<path d="M16.8957 7.00578L4.83594 4.94092L4.86416 4.78613L16.8957 6.84581V7.00578Z" fill="#DEB209"/>
<path d="M16.8956 7.1655L4.80762 5.0962L4.83584 4.94141L16.8956 7.00627V7.1655Z" fill="#DDB109"/>
<path d="M16.8954 7.32498L4.78906 5.25198V5.19717L4.80737 5.0957L16.8954 7.16501V7.32498Z" fill="#DCB009"/>
<path d="M16.8954 7.36199L16.874 7.48049L4.78906 5.41119V5.25195L16.8954 7.32496V7.36199Z" fill="#DBAF0A"/>
<path d="M16.874 7.48141L16.8458 7.63621L4.78906 5.57208V5.41211L16.874 7.48141Z" fill="#DAAE0A"/>
<path d="M16.8458 7.63639L16.8176 7.79118L4.78906 5.7315V5.57227L16.8458 7.63639Z" fill="#D9AC0A"/>
<path d="M16.8176 7.79112L16.7901 7.94517L4.78906 5.89068V5.73145L16.8176 7.79112Z" fill="#D8AB0A"/>
<path d="M16.7901 7.94512L16.7619 8.09991L4.78906 6.0506V5.89062L16.7901 7.94512Z" fill="#D7AA0B"/>
<path d="M16.7619 8.09911L16.7337 8.2539L4.78906 6.20904V6.0498L16.7619 8.09911Z" fill="#D6A90B"/>
<path d="M16.7337 8.25385L16.7054 8.40864L4.78906 6.36896V6.20898L16.7337 8.25385Z" fill="#D5A80B"/>
<path d="M16.7054 8.4098L16.6772 8.56459L4.78906 6.52935V6.37012L16.7054 8.4098Z" fill="#D4A70B"/>
<path d="M16.6772 8.56453L16.649 8.71932L4.78906 6.68853V6.5293L16.6772 8.56453Z" fill="#D3A60B"/>
<path d="M16.649 8.71829L16.6215 8.87308L4.78906 6.84748V6.6875L16.649 8.71829Z" fill="#D2A50C"/>
<path d="M16.6215 8.87522L16.5933 9.03001L4.78906 7.00884V6.84961L16.6215 8.87522Z" fill="#D1A40C"/>
<path d="M16.5933 9.028L16.5651 9.18279L4.78906 7.16681V7.00684L16.5933 9.028Z" fill="#D0A30C"/>
<path d="M16.5651 9.18297L16.5369 9.33776L4.78906 7.32623V7.16699L16.5651 9.18297Z" fill="#D0A20C"/>
<path d="M16.5369 9.33771L16.5086 9.49176L4.78906 7.48541V7.32617L16.5369 9.33771Z" fill="#CFA10C"/>
<path d="M16.5086 9.4917L16.4804 9.64649L4.78906 7.64533V7.48535L16.5086 9.4917Z" fill="#CEA00D"/>
<path d="M16.4804 9.64668L16.453 9.80147L4.78906 7.80474V7.64551L16.4804 9.64668Z" fill="#CD9F0D"/>
<path d="M16.453 9.80141L16.4247 9.9562L4.78906 7.96392V7.80469L16.453 9.80141Z" fill="#CC9E0D"/>
<path d="M16.4247 9.95517L16.3965 10.11L4.78906 8.12287V7.96289L16.4247 9.95517Z" fill="#CB9D0D"/>
<path d="M16.3965 10.1111L16.3683 10.2659L4.78906 8.28326V8.12402L16.3965 10.1111Z" fill="#CA9C0D"/>
<path d="M16.3683 10.2659L16.3401 10.4206L4.78906 8.44318V8.2832L16.3683 10.2659Z" fill="#C99B0D"/>
<path d="M16.3401 10.4208L16.3118 10.5756L4.78906 8.60259V8.44336L16.3401 10.4208Z" fill="#C89A0E"/>
<path d="M16.3118 10.5756L16.2844 10.7304L4.78906 8.76177V8.60254L16.3118 10.5756Z" fill="#C7990E"/>
<path d="M16.2844 10.7303L16.2562 10.8843L4.78906 8.92169V8.76172L16.2844 10.7303Z" fill="#C6980E"/>
<path d="M16.2562 10.8845L16.2279 11.0393L4.78906 9.08111V8.92188L16.2562 10.8845Z" fill="#C6970E"/>
<path d="M16.2279 11.0393L16.1997 11.1941L4.78906 9.24103V9.08105L16.2279 11.0393Z" fill="#C5960E"/>
<path d="M16.1997 11.1933L16.1715 11.3481L4.78906 9.39947V9.24023L16.1997 11.1933Z" fill="#C4950E"/>
<path d="M16.1715 11.3499L16.1433 11.5047L4.78906 9.5606V9.40137L16.1715 11.3499Z" fill="#C3940E"/>
<path d="M16.1433 11.5037L16.1158 11.6585L4.78906 9.71955V9.55957L16.1433 11.5037Z" fill="#C2930E"/>
<path d="M16.1158 11.6577L16.0876 11.8125L4.78906 9.87798V9.71875L16.1158 11.6577Z" fill="#C1920E"/>
<path d="M16.0876 11.8124L16.0594 11.9672L4.78906 10.0379V9.87793L16.0876 11.8124Z" fill="#C0910F"/>
<path d="M16.0594 11.9674L16.0311 12.1222L4.78906 10.1973V10.0381L16.0594 11.9674Z" fill="#BF900F"/>
<path d="M16.0311 12.1231L16.0029 12.2779L4.78906 10.3575V10.1982L16.0311 12.1231Z" fill="#BF8F0F"/>
<path d="M16.0029 12.2779L15.9747 12.4319L4.78906 10.5174V10.3574L16.0029 12.2779Z" fill="#BE8E0F"/>
<path d="M15.9747 12.4311L15.9472 12.5859L4.78906 10.6758V10.5166L15.9747 12.4311Z" fill="#BD8D0F"/>
<path d="M15.9472 12.5859L15.919 12.7406L4.78906 10.835V10.6758L15.9472 12.5859Z" fill="#BC8C0F"/>
<path d="M15.919 12.7406L15.9037 12.8258H15.4827L4.78906 10.9949V10.835L15.919 12.7406Z" fill="#BB8B0F"/>
<path d="M14.5505 12.8269L4.78906 11.1553V10.9961L15.4827 12.8269H14.5505Z" fill="#BA8A0F"/>
<path d="M13.6192 12.8269L4.78906 11.3152V11.1553L14.5505 12.8269H13.6192Z" fill="#B9890F"/>
<path d="M12.687 12.8261L4.78906 11.4737V11.3145L13.6192 12.8261H12.687Z" fill="#B9880F"/>
<path d="M11.7557 12.826L4.78906 11.6329V11.4736L12.687 12.826H11.7557Z" fill="#B8870F"/>
<path d="M10.8235 12.826L4.78906 11.7928V11.6328L11.7557 12.826H10.8235Z" fill="#B7860F"/>
<path d="M4.78906 11.7939L10.8235 12.8271H4.78906V11.7939Z" fill="#B7860F"/>
</g>
<path d="M10.8457 14.0757L10.8533 14.0683C11.3606 13.5906 14.6787 10.4748 15.7093 9.27719C16.8535 7.95888 17.1922 6.66204 16.9656 5.63184C17.4424 6.12435 17.8558 6.56354 18.1449 6.89756C23.3365 12.9003 17.45 18.5194 10.8457 14.0757Z" fill="#0C0C0C"/>
<mask id="mask3_1066_22080" style="mask-type:luminance" maskUnits="userSpaceOnUse" x="10" y="5" width="11" height="11">
<path d="M15.5205 15.7456C13.9949 15.7456 12.3694 15.1908 10.8019 14.1362L10.7256 14.0858L10.8453 13.971C13.2977 11.6632 15.0041 9.9798 15.6509 9.23103C16.6952 8.03122 17.1353 6.75883 16.892 5.64863L16.8348 5.38867L17.0217 5.58198C17.5557 6.13449 17.9424 6.54997 18.204 6.85066C21.005 10.0902 20.4413 12.9001 19.1064 14.3214C18.2673 15.2182 17.0255 15.7285 15.6174 15.7471L15.5205 15.7456ZM10.9651 14.0651C12.5159 15.0909 14.12 15.6204 15.6181 15.5974C16.9835 15.576 18.1834 15.0872 18.9973 14.2199C20.2895 12.8423 20.828 10.1109 18.0904 6.94472C17.8615 6.67884 17.5305 6.32334 17.0873 5.86193C17.2315 6.95732 16.77 8.17638 15.7707 9.32509C15.12 10.0768 13.4144 11.7603 10.9651 14.0651Z" fill="white"/>
</mask>
<g mask="url(#mask3_1066_22080)">
<path d="M10.9648 13.7693L13.0869 10.2002L19.7965 13.9611L18.8087 15.623H10.9648V13.7693Z" fill="#FFD700"/>
<path d="M13.127 10.1328L13.0869 10.2002L19.7966 13.9615L19.8367 13.8941L13.127 10.1328Z" fill="#FFD700"/>
<path d="M13.167 10.0635L13.127 10.1309L19.8367 13.8921L19.8767 13.8248L13.167 10.0635Z" fill="#FFD600"/>
<path d="M13.209 9.9971L13.1689 10.0645L19.8787 13.8257L19.9187 13.7584L13.209 9.9971Z" fill="#FED500"/>
<path d="M13.2481 9.92972L13.208 9.99707L19.9177 13.7583L19.9578 13.691L13.2481 9.92972Z" fill="#FDD400"/>
<path d="M13.2881 9.86333L13.248 9.93066L19.9578 13.6919L19.9978 13.6246L13.2881 9.86333Z" fill="#FCD300"/>
<path d="M13.3281 9.79595L13.2881 9.86328L19.9978 13.6245L20.0378 13.5572L13.3281 9.79595Z" fill="#FAD200"/>
<path d="M13.3682 9.72757L13.3281 9.79492L20.0378 13.5562L20.0779 13.4888L13.3682 9.72757Z" fill="#F9D000"/>
<path d="M13.4082 9.66019L13.3682 9.72754L20.0779 13.4888L20.1179 13.4215L13.4082 9.66019Z" fill="#F8CF00"/>
<path d="M13.4473 9.59378L13.4072 9.66113L20.1169 13.4224L20.157 13.355L13.4473 9.59378Z" fill="#F7CE00"/>
<path d="M13.4883 9.5264L13.4482 9.59375L20.158 13.355L20.198 13.2877L13.4883 9.5264Z" fill="#F6CD01"/>
<path d="M13.5274 9.45804L13.4873 9.52539L20.197 13.2867L20.2371 13.2193L13.5274 9.45804Z" fill="#F5CC01"/>
<path d="M13.5684 9.39066L13.5283 9.45801L20.238 13.2193L20.2781 13.1519L13.5684 9.39066Z" fill="#F4CB02"/>
<path d="M13.6084 9.32425L13.5684 9.3916L20.2781 13.1529L20.3181 13.0855L13.6084 9.32425Z" fill="#F3CA02"/>
<path d="M13.6484 9.25589L13.6084 9.32324L20.3181 13.0845L20.3582 13.0172L13.6484 9.25589Z" fill="#F2C802"/>
<path d="M13.6885 9.1895L13.6484 9.25684L20.3582 13.0181L20.3982 12.9508L13.6885 9.1895Z" fill="#F1C703"/>
<path d="M13.7285 9.12212L13.6885 9.18945L20.3982 12.9507L20.4382 12.8834L13.7285 9.12212Z" fill="#F0C603"/>
<path d="M13.7686 9.05472L13.7285 9.12207L20.4382 12.8833L20.4783 12.816L13.7686 9.05472Z" fill="#EFC503"/>
<path d="M13.8086 8.98734L13.7686 9.05469L20.4783 12.816L20.5183 12.7486L13.8086 8.98734Z" fill="#EEC404"/>
<path d="M13.8486 8.92093L13.8086 8.98828L20.5183 12.7495L20.5584 12.6822L13.8486 8.92093Z" fill="#EDC304"/>
<path d="M13.8887 8.85257L13.8486 8.91992L20.5583 12.6812L20.5984 12.6138L13.8887 8.85257Z" fill="#ECC105"/>
<path d="M13.9287 8.78519L13.8887 8.85254L20.5984 12.6138L20.6384 12.5464L13.9287 8.78519Z" fill="#EBC005"/>
<path d="M13.9688 8.71878L13.9287 8.78613L20.6384 12.5474L20.6785 12.48L13.9688 8.71878Z" fill="#EABF05"/>
<path d="M14.0088 8.65042L13.9688 8.71777L20.6785 12.479L20.7185 12.4117L14.0088 8.65042Z" fill="#E9BE06"/>
<path d="M14.0488 8.58304L14.0088 8.65039L20.7185 12.4117L20.7585 12.3443L14.0488 8.58304Z" fill="#E8BD06"/>
<path d="M14.0879 8.51567L14.0479 8.58301L20.7576 12.3443L20.7976 12.2769L14.0879 8.51567Z" fill="#E7BC06"/>
<path d="M14.0879 8.51466L14.1283 8.44727L20.8241 12.2008V12.2319L20.7982 12.2756L14.0879 8.51466Z" fill="#E6BB06"/>
<path d="M14.1289 8.44826L14.1686 8.38086L20.8247 12.1121V12.2017L14.1289 8.44826Z" fill="#E5BA07"/>
<path d="M14.1689 8.38087L14.2094 8.31348L20.8251 12.0218V12.1121L14.1689 8.38087Z" fill="#E4B807"/>
<path d="M14.209 8.31447L14.2487 8.24707L20.8247 11.9332V12.0228L14.209 8.31447Z" fill="#E3B707"/>
<path d="M14.248 8.24513L14.2885 8.17773L20.8241 11.8416V11.9312L14.248 8.24513Z" fill="#E2B608"/>
<path d="M14.2881 8.17896L14.3278 8.1123L20.8237 11.7532V11.8428L14.2881 8.17896Z" fill="#E1B508"/>
<path d="M14.3281 8.11134L14.3686 8.04395L20.8241 11.6626V11.7523L14.3281 8.11134Z" fill="#E0B408"/>
<path d="M14.3691 8.04494L14.4088 7.97754L20.8247 11.5733V11.6636L14.3691 8.04494Z" fill="#DFB309"/>
<path d="M14.4082 7.97853L14.4486 7.91113L20.8241 11.4846V11.5743L14.4082 7.97853Z" fill="#DEB209"/>
<path d="M14.4492 7.91017L14.4889 7.84277L20.8247 11.3941V11.4837L14.4492 7.91017Z" fill="#DDB109"/>
<path d="M14.4883 7.84181L14.5287 7.77441L20.8241 11.3035V11.3931L14.4883 7.84181Z" fill="#DCB009"/>
<path d="M14.5293 7.7754L14.569 7.70801L20.8246 11.2149V11.3045L14.5293 7.7754Z" fill="#DBAF0A"/>
<path d="M14.5684 7.70802L14.6088 7.64062L20.824 11.1245V11.2149L14.5684 7.70802Z" fill="#DAAE0A"/>
<path d="M14.6094 7.64064L14.649 7.57324L20.8246 11.0349V11.1245L14.6094 7.64064Z" fill="#D9AC0A"/>
<path d="M14.6484 7.57228L14.6889 7.50488L20.824 10.9443V11.034L14.6484 7.57228Z" fill="#D8AB0A"/>
<path d="M14.6895 7.50587L14.7291 7.43848L20.8246 10.8557V10.9453L14.6895 7.50587Z" fill="#D7AA0B"/>
<path d="M14.7295 7.43849L14.7699 7.37109L20.825 10.7654V10.8557L14.7295 7.43849Z" fill="#D6A90B"/>
<path d="M14.7695 7.37134L14.8092 7.30469L20.8246 10.676V10.7656L14.7695 7.37134Z" fill="#D5A80B"/>
<path d="M14.8096 7.3047L14.85 7.2373L20.825 10.5864V10.676L14.8096 7.3047Z" fill="#D4A70B"/>
<path d="M14.8496 7.23634L14.8893 7.16895L20.8246 10.4958V10.5854L14.8496 7.23634Z" fill="#D3A60B"/>
<path d="M14.8887 7.16896L14.9291 7.10156L20.824 10.4062V10.4958L14.8887 7.16896Z" fill="#D2A50C"/>
<path d="M14.9297 7.10255L14.9694 7.03516L20.8246 10.3169V10.4072L14.9297 7.10255Z" fill="#D1A40C"/>
<path d="M14.9688 7.03517L15.0092 6.96777L20.824 10.2273V10.3169L14.9688 7.03517Z" fill="#D0A30C"/>
<path d="M15.0098 6.96779L15.0494 6.90039L20.8246 10.1377V10.2273L15.0098 6.96779Z" fill="#D0A20C"/>
<path d="M15.0498 6.89845L15.0902 6.83105L20.8249 10.0461V10.1357L15.0498 6.89845Z" fill="#CFA10C"/>
<path d="M15.0898 6.83302L15.1295 6.76562L20.8245 9.95846V10.0481L15.0898 6.83302Z" fill="#CEA00D"/>
<path d="M15.1289 6.76466L15.1693 6.69727L20.8239 9.86714V9.95749L15.1289 6.76466Z" fill="#CD9F0D"/>
<path d="M15.1699 6.69728L15.2096 6.62988L20.8245 9.77754V9.86715L15.1699 6.69728Z" fill="#CC9E0D"/>
<path d="M15.21 6.63013L15.2504 6.56348L20.8249 9.68817V9.77779L15.21 6.63013Z" fill="#CB9D0D"/>
<path d="M15.25 6.56349L15.2897 6.49609L20.8245 9.59857V9.68819L15.25 6.56349Z" fill="#CA9C0D"/>
<path d="M15.2891 6.49708L15.3295 6.42969L20.8239 9.5092V9.59956L15.2891 6.49708Z" fill="#C99B0D"/>
<path d="M15.3301 6.42873L15.3697 6.36133L20.8245 9.41863V9.50824L15.3301 6.42873Z" fill="#C89A0E"/>
<path d="M15.3701 6.36134L15.4105 6.29395L20.8249 9.32902V9.41864L15.3701 6.36134Z" fill="#C7990E"/>
<path d="M15.4102 6.29396L15.4498 6.22656L20.8245 9.23942V9.32904L15.4102 6.29396Z" fill="#C6980E"/>
<path d="M15.4492 6.22658L15.4896 6.15918L20.8239 9.14982V9.23944L15.4492 6.22658Z" fill="#C6970E"/>
<path d="M15.4902 6.15919L15.5299 6.0918L20.8245 9.05948V9.14984L15.4902 6.15919Z" fill="#C5960E"/>
<path d="M15.5303 6.09181L15.5707 6.02441L20.8248 8.96988V9.05949L15.5303 6.09181Z" fill="#C4950E"/>
<path d="M15.5703 6.02443L15.61 5.95703L20.8244 8.88028V8.96989L15.5703 6.02443Z" fill="#C3940E"/>
<path d="M15.6104 5.95607L15.6508 5.88867L20.8248 8.7897V8.87931L15.6104 5.95607Z" fill="#C2930E"/>
<path d="M15.6504 5.88947L15.6672 5.86133H15.7595L20.8244 8.70014V8.7905L15.6504 5.88947Z" fill="#C1920E"/>
<path d="M15.92 5.86133L20.8247 8.61053V8.70014L15.7598 5.86133H15.92Z" fill="#C0910F"/>
<path d="M16.0801 5.86133L20.8247 8.52091V8.61053L15.9199 5.86133H16.0801Z" fill="#BF900F"/>
<path d="M16.2403 5.86133L20.8247 8.4313V8.52091L16.0801 5.86133H16.2403Z" fill="#BF8F0F"/>
<path d="M16.3994 5.86133L20.8237 8.34094V8.4313L16.2393 5.86133H16.3994Z" fill="#BE8E0F"/>
<path d="M16.5598 5.86133L20.8246 8.25132V8.34094L16.4004 5.86133H16.5598Z" fill="#BD8D0F"/>
<path d="M16.7205 5.86133L20.8244 8.16171V8.25132L16.5596 5.86133H16.7205Z" fill="#BC8C0F"/>
<path d="M16.8809 5.86133L20.8245 8.07209V8.16171L16.7207 5.86133H16.8809Z" fill="#BB8B0F"/>
<path d="M17.0403 5.86133L20.8245 7.98248V8.07209L16.8809 5.86133H17.0403Z" fill="#BA8A0F"/>
<path d="M17.2002 5.86133L20.8243 7.89212V7.98248L17.04 5.86133H17.2002Z" fill="#B9890F"/>
<path d="M17.3604 5.86133L20.8242 7.8025V7.89212L17.2002 5.86133H17.3604Z" fill="#B9880F"/>
<path d="M17.5215 5.86133L20.8252 7.71289V7.8025L17.3613 5.86133H17.5215Z" fill="#B8870F"/>
<path d="M17.6807 5.86133L20.8242 7.62327V7.71289L17.5205 5.86133H17.6807Z" fill="#B7860F"/>
<path d="M20.8241 7.62327L17.6807 5.86133H20.8241V7.62327Z" fill="#B7860F"/>
<path d="M10.7266 13.7898L12.9181 10.1045L19.9373 14.0402L18.9236 15.7458H10.7266V13.7898Z" fill="#FFD700"/>
<path d="M12.958 10.0371L12.918 10.1045L19.9382 14.0398L19.9782 13.9725L12.958 10.0371Z" fill="#FFD700"/>
<path d="M12.998 9.96977L12.958 10.0371L19.9782 13.9724L20.0182 13.9051L12.998 9.96977Z" fill="#FFD600"/>
<path d="M13.0381 9.90142L12.998 9.96875L20.0182 13.9041L20.0583 13.8367L13.0381 9.90142Z" fill="#FED500"/>
<path d="M13.0781 9.83597L13.0381 9.90332L20.0583 13.8386L20.0983 13.7713L13.0781 9.83597Z" fill="#FDD400"/>
<path d="M13.1182 9.76761L13.0781 9.83496L20.0983 13.7703L20.1384 13.7029L13.1182 9.76761Z" fill="#FCD300"/>
<path d="M13.1582 9.70023L13.1182 9.76758L20.1383 13.7029L20.1784 13.6355L13.1582 9.70023Z" fill="#FAD200"/>
<path d="M13.1983 9.63187L13.1582 9.69922L20.1784 13.6345L20.2184 13.5672L13.1983 9.63187Z" fill="#F9D000"/>
<path d="M13.2383 9.56546L13.1982 9.63281L20.2184 13.5681L20.2585 13.5008L13.2383 9.56546Z" fill="#F8CF00"/>
<path d="M13.2783 9.4971L13.2383 9.56445L20.2585 13.4998L20.2985 13.4324L13.2783 9.4971Z" fill="#F7CE00"/>
<path d="M13.3184 9.4307L13.2783 9.49805L20.2985 13.4334L20.3386 13.366L13.3184 9.4307Z" fill="#F6CD01"/>
<path d="M13.3584 9.36429L13.3184 9.43164L20.3386 13.367L20.3786 13.2996L13.3584 9.36429Z" fill="#F5CC01"/>
<path d="M13.3975 9.29691L13.3574 9.36426L20.3776 13.2996L20.4177 13.2322L13.3975 9.29691Z" fill="#F4CB02"/>
<path d="M13.4385 9.22856L13.3984 9.2959L20.4186 13.2312L20.4587 13.1639L13.4385 9.22856Z" fill="#F3CA02"/>
<path d="M13.4785 9.16216L13.4385 9.22949L20.4587 13.1648L20.4987 13.0975L13.4785 9.16216Z" fill="#F2C802"/>
<path d="M13.5186 9.09476L13.4785 9.16211L20.4987 13.0974L20.5388 13.0301L13.5186 9.09476Z" fill="#F1C703"/>
<path d="M13.5586 9.0264L13.5186 9.09375L20.5387 13.0291L20.5788 12.9617L13.5586 9.0264Z" fill="#F0C603"/>
<path d="M13.5986 8.95999L13.5586 9.02734L20.5788 12.9626L20.6188 12.8953L13.5986 8.95999Z" fill="#EFC503"/>
<path d="M13.6387 8.89163L13.5986 8.95898L20.6188 12.8943L20.6589 12.8269L13.6387 8.89163Z" fill="#EEC404"/>
<path d="M13.6787 8.82425L13.6387 8.8916L20.6589 12.8269L20.6989 12.7596L13.6787 8.82425Z" fill="#EDC304"/>
<path d="M13.7188 8.75687L13.6787 8.82422L20.6989 12.7595L20.739 12.6922L13.7188 8.75687Z" fill="#ECC105"/>
<path d="M13.7588 8.69046L13.7188 8.75781L20.7389 12.6931L20.779 12.6258L13.7588 8.69046Z" fill="#EBC005"/>
<path d="M13.7988 8.6221L13.7588 8.68945L20.779 12.6248L20.819 12.5574L13.7988 8.6221Z" fill="#EABF05"/>
<path d="M13.8389 8.55571L13.7988 8.62305L20.819 12.5584L20.8591 12.491L13.8389 8.55571Z" fill="#E9BE06"/>
<path d="M13.8789 8.48833L13.8389 8.55566L20.8591 12.491L20.8991 12.4236L13.8789 8.48833Z" fill="#E8BD06"/>
<path d="M13.9199 8.41995L13.8799 8.4873L20.9001 12.4226L20.9401 12.3553L13.9199 8.41995Z" fill="#E7BC06"/>
<path d="M13.959 8.35355L13.9189 8.4209L20.9391 12.3562L20.9792 12.2889L13.959 8.35355Z" fill="#E6BB06"/>
<path d="M13.959 8.35353L13.9994 8.28613L21.0049 12.2129V12.2448L20.979 12.2885L13.959 8.35353Z" fill="#E5BA07"/>
<path d="M13.999 8.28712L14.0387 8.21973L21.0045 12.1243V12.2139L13.999 8.28712Z" fill="#E4B807"/>
<path d="M14.0391 8.21876L14.0795 8.15137L21.0049 12.0337V12.1233L14.0391 8.21876Z" fill="#E3B707"/>
<path d="M14.0781 8.15138L14.1178 8.08398L21.0035 11.9434V12.0337L14.0781 8.15138Z" fill="#E2B608"/>
<path d="M14.1191 8.08498L14.1596 8.01758L21.0049 11.8548V11.9444L14.1191 8.08498Z" fill="#E1B508"/>
<path d="M14.1592 8.01662L14.1988 7.94922L21.0045 11.7642V11.8538L14.1592 8.01662Z" fill="#E0B408"/>
<path d="M14.1992 7.94923L14.2396 7.88184L21.0049 11.6746V11.7642L14.1992 7.94923Z" fill="#DFB309"/>
<path d="M14.2393 7.88185L14.2789 7.81445L21.0045 11.585V11.6746L14.2393 7.88185Z" fill="#DEB209"/>
<path d="M14.2783 7.81544L14.3187 7.74805L21.0039 11.4956V11.586L14.2783 7.81544Z" fill="#DDB109"/>
<path d="M14.3193 7.74732L14.359 7.68066L21.0045 11.4053V11.4949L14.3193 7.74732Z" fill="#DCB009"/>
<path d="M14.3584 7.68068L14.3988 7.61328L21.0039 11.3157V11.4053L14.3584 7.68068Z" fill="#DBAF0A"/>
<path d="M14.3984 7.61427L14.4381 7.54688L21.0035 11.227V11.3167L14.3984 7.61427Z" fill="#DAAE0A"/>
<path d="M14.4385 7.54591L14.4789 7.47852L21.0039 11.1357V11.2261L14.4385 7.54591Z" fill="#D9AC0A"/>
<path d="M14.4795 7.47853L14.5192 7.41113L21.0044 11.0461V11.1357L14.4795 7.47853Z" fill="#D8AB0A"/>
<path d="M14.5195 7.41115L14.56 7.34375L21.0048 10.9565V11.0461L14.5195 7.41115Z" fill="#D7AA0B"/>
<path d="M14.5596 7.34474L14.5992 7.27734L21.0044 10.8679V10.9575L14.5596 7.34474Z" fill="#D6A90B"/>
<path d="M14.5996 7.27638L14.64 7.20898L21.0048 10.7773V10.8669L14.5996 7.27638Z" fill="#D5A80B"/>
<path d="M14.6396 7.209L14.6793 7.1416L21.0044 10.687V10.7773L14.6396 7.209Z" fill="#D4A70B"/>
<path d="M14.6797 7.14162L14.7201 7.07422L21.0048 10.5974V10.687L14.6797 7.14162Z" fill="#D3A60B"/>
<path d="M14.7207 7.07521L14.7604 7.00781L21.0054 10.5087V10.5984L14.7207 7.07521Z" fill="#D2A50C"/>
<path d="M14.7588 7.00685L14.7992 6.93945L21.0038 10.4182V10.5078L14.7588 7.00685Z" fill="#D1A40C"/>
<path d="M14.7998 6.93873L14.8395 6.87207L21.0044 10.3278V10.4174L14.7998 6.93873Z" fill="#D0A30C"/>
<path d="M14.8398 6.87306L14.8803 6.80566L21.0048 10.2385V10.3288L14.8398 6.87306Z" fill="#D0A20C"/>
<path d="M14.8799 6.8047L14.9195 6.7373L21.0044 10.1479V10.2375L14.8799 6.8047Z" fill="#CFA10C"/>
<path d="M14.9199 6.73732L14.9603 6.66992L21.0047 10.0583V10.1479L14.9199 6.73732Z" fill="#CEA00D"/>
<path d="M14.96 6.66994L14.9996 6.60254L21.0043 9.96868V10.0583L14.96 6.66994Z" fill="#CD9F0D"/>
<path d="M15 6.60255L15.0404 6.53516L21.0047 9.87833V9.96869L15 6.60255Z" fill="#CC9E0D"/>
<path d="M15.04 6.53419L15.0797 6.4668L21.0043 9.78776V9.87737L15.04 6.53419Z" fill="#CB9D0D"/>
<path d="M15.0801 6.46779L15.1205 6.40039L21.0047 9.69913V9.78875L15.0801 6.46779Z" fill="#CA9C0D"/>
<path d="M15.1201 6.4004L15.1598 6.33301L21.0043 9.60953V9.69915L15.1201 6.4004Z" fill="#C99B0D"/>
<path d="M15.1602 6.33302L15.2006 6.26562L21.0047 9.51993V9.60954L15.1602 6.33302Z" fill="#C89A0E"/>
<path d="M15.2002 6.26564L15.2399 6.19824L21.0043 9.42959V9.51994L15.2002 6.26564Z" fill="#C7990E"/>
<path d="M15.2393 6.19826L15.2797 6.13086L21.0037 9.33999V9.4296L15.2393 6.19826Z" fill="#C6980E"/>
<path d="M15.2803 6.13185L15.3199 6.06445L21.0043 9.25136V9.34098L15.2803 6.13185Z" fill="#C6970E"/>
<path d="M15.3193 6.06373L15.3598 5.99707L21.0037 9.16102V9.25063L15.3193 6.06373Z" fill="#C5960E"/>
<path d="M15.3604 5.99611L15.4 5.92871L21.0043 9.0697V9.16006L15.3604 5.99611Z" fill="#C4950E"/>
<path d="M15.4004 5.93068L15.4408 5.86328L21.0046 8.98205V9.07167L15.4004 5.93068Z" fill="#C3940E"/>
<path d="M15.4414 5.86232L15.4811 5.79492L21.0052 8.89147V8.98109L15.4414 5.86232Z" fill="#C2930E"/>
<path d="M15.4805 5.79396L15.5201 5.72656L21.0046 8.80089V8.89051L15.4805 5.79396Z" fill="#C1920E"/>
<path d="M15.5195 5.72658L15.56 5.65918L21.004 8.71055V8.80091L15.5195 5.72658Z" fill="#C0910F"/>
<path d="M15.5596 5.66017L15.6 5.59277L21.0036 8.62193V8.71154L15.5596 5.66017Z" fill="#BF900F"/>
<path d="M15.6006 5.59279L15.6403 5.52539L21.0042 8.53233V8.62194L15.6006 5.59279Z" fill="#BF8F0F"/>
<path d="M15.6406 5.5254L15.6803 5.45801L21.0046 8.44272V8.53234L15.6406 5.5254Z" fill="#BE8E0F"/>
<path d="M15.6797 5.459L15.7201 5.3916L21.004 8.3541V8.44372L15.6797 5.459Z" fill="#BD8D0F"/>
<path d="M15.7207 5.39042L15.723 5.38672H15.8733L21.0046 8.26256V8.35292L15.7207 5.39042Z" fill="#BC8C0F"/>
<path d="M16.0332 5.38672L21.0044 8.17295V8.26256L15.873 5.38672H16.0332Z" fill="#BB8B0F"/>
<path d="M16.1934 5.38672L21.0043 8.08333V8.17295L16.0332 5.38672H16.1934Z" fill="#BA8A0F"/>
<path d="M16.3535 5.38672L21.0043 7.99372V8.08333L16.1934 5.38672H16.3535Z" fill="#B9890F"/>
<path d="M16.5137 5.38672L21.0043 7.90336V7.99372L16.3535 5.38672H16.5137Z" fill="#B9880F"/>
<path d="M16.6748 5.38672L21.0052 7.81374V7.90336L16.5146 5.38672H16.6748Z" fill="#B8870F"/>
<path d="M16.834 5.38672L21.0042 7.72413V7.81375L16.6738 5.38672H16.834Z" fill="#B7860F"/>
<path d="M21.0052 7.72413L16.835 5.38672H21.0052V7.72413Z" fill="#B7860F"/>
</g>
</g>
<defs>
<clipPath id="clip0_1066_22080">
<rect width="20.3209" height="18.8694" fill="white" transform="translate(0.669922 0.396484)"/>
</clipPath>
</defs>
</svg>
