<svg width="465" height="373" viewBox="0 0 465 373" fill="none" xmlns="http://www.w3.org/2000/svg">
<g clip-path="url(#clip0_437_3362)">
<path d="M232.114 341.638L160.991 371.252C160.76 371.298 160.557 371.433 160.426 371.628C160.295 371.822 160.247 372.06 160.294 372.29C160.34 372.519 160.476 372.721 160.672 372.851C160.868 372.981 161.108 373.028 161.339 372.982H303.569C303.684 373.003 303.802 373.002 303.916 372.979C304.03 372.955 304.137 372.91 304.234 372.845C304.33 372.78 304.413 372.696 304.477 372.6C304.54 372.503 304.584 372.395 304.606 372.281C304.628 372.167 304.627 372.051 304.603 371.938C304.579 371.825 304.534 371.717 304.468 371.621C304.403 371.526 304.319 371.444 304.221 371.381C304.124 371.317 304.015 371.273 303.901 371.252L232.794 341.638C232.688 341.586 232.572 341.56 232.454 341.56C232.336 341.56 232.22 341.586 232.114 341.638Z" fill="#C9A125"/>
<path d="M232.27 319.879L232.444 320.051C81.4342 423.613 -52.8012 292.375 65.7563 152.402C72.3409 144.601 81.8001 134.344 92.6699 122.841C87.6879 146.902 95.3524 177.19 121.377 207.98C145.085 235.95 220.86 308.722 232.27 319.879Z" fill="#0C0C0C"/>
<mask id="mask0_437_3362" style="mask-type:luminance" maskUnits="userSpaceOnUse" x="18" y="117" width="218" height="242">
<path d="M125.697 358.992H123.363C91.206 358.456 62.8992 346.607 43.6855 325.625C13.2883 292.431 0.467805 226.873 64.415 151.334C70.3725 144.311 79.2042 134.607 91.3979 121.703L95.6307 117.24L94.3765 123.242C88.9939 149.189 99.0624 178.941 122.701 206.929C143.482 231.439 203.928 289.957 226.678 312.081L233.489 318.689L235.231 320.418L233.489 321.612C197.622 345.985 160.431 358.992 125.697 358.992ZM90.0391 128.19C79.8835 139.001 72.3405 147.321 67.0798 153.531C4.57844 227.357 16.807 291.099 46.1763 323.273C64.7456 343.528 92.1466 354.979 123.328 355.498C157.4 356.155 194.156 343.753 229.587 319.83L224.117 314.52C201.333 292.431 140.8 233.757 119.913 209.125C97.3029 182.297 86.8513 153.807 90.0391 128.19Z" fill="white"/>
</mask>
<g mask="url(#mask0_437_3362)">
<path d="M4.58154 220.405L12.0894 207.483L227.308 330.868L212.606 356.122H4.58154V220.405Z" fill="#FFD700"/>
<path d="M12.8734 206.155L12.0894 207.504L227.288 330.879L228.072 329.531L12.8734 206.155Z" fill="#FFD700"/>
<path d="M13.6637 204.817L12.8799 206.165L228.079 329.541L228.862 328.193L13.6637 204.817Z" fill="#FFD600"/>
<path d="M14.441 203.45L13.6572 204.798L228.856 328.173L229.64 326.825L14.441 203.45Z" fill="#FED500"/>
<path d="M14.439 203.469L15.2228 202.12L229.71 325.089V326.732L229.64 326.854L14.439 203.469Z" fill="#FDD400"/>
<path d="M15.2256 202.098L16.0095 200.749L229.713 323.268V325.067L15.2256 202.098Z" fill="#FCD300"/>
<path d="M16.0112 200.781L16.7951 199.432L229.714 321.519V323.3L16.0112 200.781Z" fill="#FAD200"/>
<path d="M16.793 199.429L17.5768 198.097L229.712 319.717V321.515L16.793 199.429Z" fill="#F9D000"/>
<path d="M17.5786 198.095L18.3625 196.746L229.714 317.916V319.715L17.5786 198.095Z" fill="#F8CF00"/>
<path d="M18.3608 196.736L19.1447 195.387L229.712 316.107V317.906L18.3608 196.736Z" fill="#F7CE00"/>
<path d="M19.1387 195.388L19.9051 194.039L229.706 314.31V316.109L19.1387 195.388Z" fill="#F6CD01"/>
<path d="M19.9087 194.029L20.71 192.68L229.71 312.518V314.3L19.9087 194.029Z" fill="#F5CC01"/>
<path d="M20.7148 192.691L21.4813 191.342L229.715 310.73V312.529L20.7148 192.691Z" fill="#F4CB02"/>
<path d="M21.481 191.321L22.2648 189.989L229.714 308.911V310.71L21.481 191.321Z" fill="#F3CA02"/>
<path d="M22.2666 190.002L23.0505 188.652L229.716 307.124V308.923L22.2666 190.002Z" fill="#F2C802"/>
<path d="M23.0449 188.666L23.8288 187.316L229.711 305.356V307.137L23.0449 188.666Z" fill="#F1C703"/>
<path d="M23.834 187.295L24.6179 185.945L229.716 303.535V305.334L23.834 187.295Z" fill="#F0C603"/>
<path d="M24.6196 185.957L25.4035 184.607L229.718 301.747V303.546L24.6196 185.957Z" fill="#EFC503"/>
<path d="M25.3979 184.618L26.1818 183.269L229.712 299.959V301.758L25.3979 184.618Z" fill="#EEC404"/>
<path d="M26.1797 183.282L26.9636 181.95L229.71 298.19V299.972L26.1797 183.282Z" fill="#EDC304"/>
<path d="M26.9668 181.931L27.7507 180.582L229.713 296.373V298.172L26.9668 181.931Z" fill="#ECC105"/>
<path d="M27.752 180.561L28.5358 179.212L229.714 294.553V296.352L27.752 180.561Z" fill="#EBC005"/>
<path d="M28.5293 179.221L29.3132 177.872L229.708 292.763V294.562L28.5293 179.221Z" fill="#EABF05"/>
<path d="M29.3208 177.887L30.1047 176.538L229.715 290.979V292.778L29.3208 177.887Z" fill="#E9BE06"/>
<path d="M30.1064 176.548L30.8903 175.199L229.717 289.208V290.99L30.1064 176.548Z" fill="#E8BD06"/>
<path d="M30.8833 175.18L31.6672 173.848L229.71 287.389V289.188L30.8833 175.18Z" fill="#E7BC06"/>
<path d="M31.6704 173.86L32.4369 172.511L229.713 285.603V287.402L31.6704 173.86Z" fill="#E6BB06"/>
<path d="M32.4399 172.52L33.2238 171.171L229.716 283.813V285.612L32.4399 172.52Z" fill="#E5BA07"/>
<path d="M33.2217 171.153L34.0056 169.804L229.714 282.014V283.795L33.2217 171.153Z" fill="#E4B807"/>
<path d="M34.0024 169.814L34.7863 168.465L229.711 280.225V282.024L34.0024 169.814Z" fill="#E3B707"/>
<path d="M34.7856 168.459L35.5695 167.127L229.711 278.42V280.219L34.7856 168.459Z" fill="#E2B608"/>
<path d="M35.5796 167.13L36.3635 165.78L229.721 276.624V278.423L35.5796 167.13Z" fill="#E1B508"/>
<path d="M36.3569 165.79L37.1408 164.44L229.714 274.851V276.633L36.3569 165.79Z" fill="#E0B408"/>
<path d="M37.1401 164.42L37.924 163.07L229.713 273.032V274.83L37.1401 164.42Z" fill="#DFB309"/>
<path d="M37.9292 163.08L38.7131 161.73L229.719 271.242V273.041L37.9292 163.08Z" fill="#DEB209"/>
<path d="M38.7061 161.72L39.4899 160.371L229.712 269.433V271.232L38.7061 161.72Z" fill="#DDB109"/>
<path d="M39.4932 160.39L40.277 159.058L229.715 267.67V269.451L39.4932 160.39Z" fill="#DCB009"/>
<path d="M40.2749 159.036L41.0588 157.687L229.713 265.849V267.648L40.2749 159.036Z" fill="#DBAF0A"/>
<path d="M41.0605 157.697L41.8444 156.348L229.714 264.06V265.859L41.0605 157.697Z" fill="#DAAE0A"/>
<path d="M41.8389 156.35L42.6227 155.001L229.709 262.264V264.063L41.8389 156.35Z" fill="#D9AC0A"/>
<path d="M42.6245 154.991L43.391 153.642L229.711 260.472V262.254L42.6245 154.991Z" fill="#D8AB0A"/>
<path d="M43.3901 153.655L44.174 152.323L229.71 258.687V260.486L43.3901 153.655Z" fill="#D7AA0B"/>
<path d="M44.1807 152.335L44.9645 150.985L229.716 256.899V258.698L44.1807 152.335Z" fill="#D6A90B"/>
<path d="M44.9541 150.987L45.738 149.638L229.706 255.102V256.9L44.9541 150.987Z" fill="#D5A80B"/>
<path d="M45.7446 149.629L46.5285 148.279L229.713 253.293V255.092L45.7446 149.629Z" fill="#D4A70B"/>
<path d="M46.5264 148.256L47.3102 146.907L229.71 251.489V253.271L46.5264 148.256Z" fill="#D3A60B"/>
<path d="M47.3047 146.919L48.0886 145.569L229.705 249.701V251.5L47.3047 146.919Z" fill="#D2A50C"/>
<path d="M48.0977 145.583L48.8815 144.251L229.714 247.916V249.715L48.0977 145.583Z" fill="#D1A40C"/>
<path d="M48.8843 144.233L49.6682 142.884L229.717 246.099V247.898L48.8843 144.233Z" fill="#D0A30C"/>
<path d="M49.6665 142.894L50.4504 141.545L229.715 244.328V246.109L49.6665 142.894Z" fill="#D0A20C"/>
<path d="M50.4434 141.555L51.2272 140.206L229.708 242.539V244.338L50.4434 141.555Z" fill="#CFA10C"/>
<path d="M51.2339 140.188L52.0178 138.839L229.715 240.722V242.521L51.2339 140.188Z" fill="#CEA00D"/>
<path d="M52.0156 138.851L52.7995 137.52L229.713 238.936V240.735L52.0156 138.851Z" fill="#CD9F0D"/>
<path d="M52.8013 137.499L53.5851 136.149L229.714 237.133V238.915L52.8013 137.499Z" fill="#CC9E0D"/>
<path d="M53.5845 136.16L54.3509 134.811L229.714 235.345V237.143L53.5845 136.16Z" fill="#CB9D0D"/>
<path d="M54.3457 134.8L55.1296 133.451L229.708 233.535V235.334L54.3457 134.8Z" fill="#CA9C0D"/>
<path d="M55.1313 133.454L55.9152 132.104L229.71 231.739V233.538L55.1313 133.454Z" fill="#C99B0D"/>
<path d="M55.9165 132.115L56.7004 130.766L229.711 229.95V231.749L55.9165 132.115Z" fill="#C89A0E"/>
<path d="M56.7036 130.76L57.4875 129.428L229.715 228.163V229.944L56.7036 130.76Z" fill="#C7990E"/>
<path d="M57.4902 129.445L58.2219 128.183H58.4309L229.717 226.381V228.18L57.4902 129.445Z" fill="#C6980E"/>
<path d="M61.555 128.183L229.706 224.582V226.381L58.4194 128.183H61.555Z" fill="#C6970E"/>
<path d="M64.6946 128.183L229.71 222.784V224.582L61.5591 128.183H64.6946Z" fill="#C5960E"/>
<path d="M67.8159 128.183L229.713 221.002V222.783L64.6978 128.183H67.8159Z" fill="#C4950E"/>
<path d="M70.949 128.183L229.711 219.203V221.002L67.8135 128.183H70.949Z" fill="#C3940E"/>
<path d="M74.0862 128.183L229.713 217.404V219.203L70.9507 128.183H74.0862Z" fill="#C2930E"/>
<path d="M77.221 128.183L229.712 215.605V217.404L74.0854 128.183H77.221Z" fill="#C1920E"/>
<path d="M80.3315 128.183L229.704 213.823V215.605L77.2134 128.183H80.3315Z" fill="#C0910F"/>
<path d="M83.4763 128.183L229.714 212.024V213.823L80.3408 128.183H83.4763Z" fill="#BF900F"/>
<path d="M86.6092 128.183L229.711 210.225V212.024L83.4736 128.183H86.6092Z" fill="#BF8F0F"/>
<path d="M89.7439 128.183L229.71 208.426V210.225L86.6084 128.183H89.7439Z" fill="#BE8E0F"/>
<path d="M92.8661 128.183L229.714 206.645V208.426L89.748 128.183H92.8661Z" fill="#BD8D0F"/>
<path d="M95.9954 128.183L229.708 204.846V206.645L92.8599 128.183H95.9954Z" fill="#BC8C0F"/>
<path d="M99.1404 128.183L229.717 203.047V204.846L96.0049 128.183H99.1404Z" fill="#BB8B0F"/>
<path d="M102.27 128.183L229.712 201.248V203.047L99.1348 128.183H102.27Z" fill="#BA8A0F"/>
<path d="M105.386 128.183L229.709 199.466V201.248L102.268 128.183H105.386Z" fill="#B9890F"/>
<path d="M108.531 128.183L229.718 197.667V199.466L105.395 128.183H108.531Z" fill="#B9880F"/>
<path d="M111.658 128.183L229.71 195.868V197.667L108.522 128.183H111.658Z" fill="#B8870F"/>
<path d="M114.776 128.183L229.71 194.069V195.868L111.658 128.183H114.776Z" fill="#B7860F"/>
<path d="M229.707 194.069L114.773 128.183H229.707V194.069Z" fill="#B7860F"/>
<path d="M0.471191 219.922L8.78032 205.617L231.594 333.378L216.7 358.996H0.471191V219.922Z" fill="#FFD700"/>
<path d="M9.56086 204.269L8.77686 205.617L231.594 333.36L232.378 332.012L9.56086 204.269Z" fill="#FFD700"/>
<path d="M10.3473 202.919L9.56348 204.267L232.38 332.01L233.164 330.662L10.3473 202.919Z" fill="#FFD600"/>
<path d="M11.1417 201.579L10.3579 202.927L233.175 330.67L233.959 329.322L11.1417 201.579Z" fill="#FED500"/>
<path d="M11.9073 200.244L11.1235 201.592L233.941 329.335L234.724 327.987L11.9073 200.244Z" fill="#FDD400"/>
<path d="M11.9131 200.231L12.697 198.882L235.162 326.435V327.213L234.727 327.974L11.9131 200.231Z" fill="#FCD300"/>
<path d="M12.6948 198.876L13.4787 197.544L235.16 324.63V326.429L12.6948 198.876Z" fill="#FAD200"/>
<path d="M13.4893 197.526L14.2731 196.177L235.171 322.83V324.612L13.4893 197.526Z" fill="#F9D000"/>
<path d="M14.2671 196.186L15.051 194.837L235.165 321.041V322.84L14.2671 196.186Z" fill="#F8CF00"/>
<path d="M15.0444 194.836L15.8109 193.486L235.158 319.24V321.039L15.0444 194.836Z" fill="#F7CE00"/>
<path d="M15.8188 193.497L16.6027 192.147L235.166 317.452V319.251L15.8188 193.497Z" fill="#F6CD01"/>
<path d="M16.6045 192.145L17.3884 190.813L235.168 315.668V317.45L16.6045 192.145Z" fill="#F5CC01"/>
<path d="M17.3877 190.791L18.1716 189.441L235.167 313.846V315.645L17.3877 190.791Z" fill="#F4CB02"/>
<path d="M18.1685 189.452L18.9523 188.103L235.164 312.058V313.857L18.1685 189.452Z" fill="#F3CA02"/>
<path d="M18.9502 188.115L19.7341 186.766L235.162 310.271V312.07L18.9502 188.115Z" fill="#F2C802"/>
<path d="M19.7407 186.747L20.5246 185.397L235.168 308.47V310.252L19.7407 186.747Z" fill="#F1C703"/>
<path d="M20.519 185.428L21.3029 184.079L235.163 306.702V308.501L20.519 185.428Z" fill="#F0C603"/>
<path d="M21.3047 184.072L22.0886 182.74L235.165 304.896V306.695L21.3047 184.072Z" fill="#EFC503"/>
<path d="M22.0864 182.718L22.8703 181.369L235.162 303.075V304.874L22.0864 182.718Z" fill="#EEC404"/>
<path d="M22.8721 181.383L23.656 180.034L235.164 301.291V303.09L22.8721 181.383Z" fill="#EDC304"/>
<path d="M23.6538 180.045L24.4377 178.695L235.162 299.519V301.301L23.6538 180.045Z" fill="#ECC105"/>
<path d="M24.4409 178.674L25.2248 177.325L235.165 297.7V299.499L24.4409 178.674Z" fill="#EBC005"/>
<path d="M25.23 177.335L26.0139 175.985L235.17 295.91V297.709L25.23 177.335Z" fill="#EABF05"/>
<path d="M26.0044 175.972L26.7883 174.64L235.161 294.097V295.896L26.0044 175.972Z" fill="#E9BE06"/>
<path d="M26.7949 174.649L27.5614 173.3L235.168 292.325V294.107L26.7949 174.649Z" fill="#E8BD06"/>
<path d="M27.5596 173.31L28.3435 171.961L235.166 290.536V292.335L27.5596 173.31Z" fill="#E7BC06"/>
<path d="M28.3452 171.943L29.1291 170.594L235.168 288.719V290.518L28.3452 171.943Z" fill="#E6BB06"/>
<path d="M29.1274 170.605L29.9113 169.256L235.166 286.932V288.731L29.1274 170.605Z" fill="#E5BA07"/>
<path d="M29.9141 169.248L30.6979 167.916L235.169 285.125V286.924L29.9141 169.248Z" fill="#E4B807"/>
<path d="M30.6958 167.915L31.4797 166.565L235.167 283.342V285.124L30.6958 167.915Z" fill="#E3B707"/>
<path d="M31.4814 166.555L32.2653 165.206L235.168 281.533V283.332L31.4814 166.555Z" fill="#E2B608"/>
<path d="M32.2598 165.217L33.0436 163.868L235.163 279.745V281.544L32.2598 165.217Z" fill="#E1B508"/>
<path d="M33.0454 163.871L33.8293 162.521L235.165 277.949V279.748L33.0454 163.871Z" fill="#E0B408"/>
<path d="M33.8311 162.532L34.6149 161.183L235.166 276.177V277.959L33.8311 162.532Z" fill="#DFB309"/>
<path d="M34.6143 161.176L35.3981 159.844L235.166 274.372V276.171L34.6143 161.176Z" fill="#DEB209"/>
<path d="M35.3945 159.825L36.1784 158.476L235.162 272.554V274.353L35.3945 159.825Z" fill="#DDB109"/>
<path d="M36.1816 158.507L36.9655 157.158L235.165 270.787V272.585L36.1816 158.507Z" fill="#DCB009"/>
<path d="M36.9634 157.148L37.7473 155.799L235.163 268.995V270.776L36.9634 157.148Z" fill="#DBAF0A"/>
<path d="M37.7451 155.797L38.5116 154.448L235.161 267.194V268.993L37.7451 155.797Z" fill="#DAAE0A"/>
<path d="M38.5103 154.438L39.2941 153.089L235.16 265.385V267.184L38.5103 154.438Z" fill="#D9AC0A"/>
<path d="M39.3008 153.106L40.0847 151.774L235.166 263.604V265.403L39.3008 153.106Z" fill="#D8AB0A"/>
<path d="M40.0874 151.754L40.8713 150.404L235.169 261.801V263.583L40.0874 151.754Z" fill="#D7AA0B"/>
<path d="M40.873 150.414L41.6569 149.064L235.171 260.012V261.811L40.873 150.414Z" fill="#D6A90B"/>
<path d="M41.6514 149.076L42.4352 147.727L235.165 258.224V260.023L41.6514 149.076Z" fill="#D5A80B"/>
<path d="M42.437 147.708L43.2209 146.358L235.167 256.406V258.205L42.437 147.708Z" fill="#D4A70B"/>
<path d="M43.2222 146.37L44.006 145.021L235.168 254.636V256.417L43.2222 146.37Z" fill="#D3A60B"/>
<path d="M44.0005 145.033L44.7844 143.701L235.163 252.849V254.648L44.0005 145.033Z" fill="#D2A50C"/>
<path d="M44.791 143.683L45.5749 142.334L235.169 251.032V252.831L44.791 143.683Z" fill="#D1A40C"/>
<path d="M45.5718 142.324L46.3557 140.975L235.166 249.223V251.022L45.5718 142.324Z" fill="#D0A30C"/>
<path d="M46.355 140.973L47.1389 139.624L235.166 247.44V249.222L46.355 140.973Z" fill="#D0A20C"/>
<path d="M47.1406 139.635L47.9245 138.286L235.167 245.653V247.452L47.1406 139.635Z" fill="#CFA10C"/>
<path d="M47.9224 138.296L48.7062 136.947L235.165 243.864V245.663L47.9224 138.296Z" fill="#CEA00D"/>
<path d="M48.709 136.932L49.4929 135.601L235.168 242.05V243.849L48.709 136.932Z" fill="#CD9F0D"/>
<path d="M49.4863 135.612L50.2702 134.263L235.161 240.263V242.062L49.4863 135.612Z" fill="#CC9E0D"/>
<path d="M50.2754 134.272L51.0419 132.923L235.167 238.49V240.272L50.2754 134.272Z" fill="#CB9D0D"/>
<path d="M51.0415 132.904L51.8254 131.555L235.166 236.673V238.472L51.0415 132.904Z" fill="#CA9C0D"/>
<path d="M51.8159 131.566L52.5998 130.217L235.157 234.885V236.684L51.8159 131.566Z" fill="#C99B0D"/>
<path d="M52.6055 130.21L53.3893 128.878L235.162 233.079V234.878L52.6055 130.21Z" fill="#C89A0E"/>
<path d="M53.3906 128.877L54.1745 127.527L235.164 231.296V233.078L53.3906 128.877Z" fill="#C7990E"/>
<path d="M54.1812 127.518L54.965 126.169L235.17 229.488V231.287L54.1812 127.518Z" fill="#C6980E"/>
<path d="M54.9595 126.171L55.7434 124.821L235.165 227.69V229.489L54.9595 126.171Z" fill="#C6970E"/>
<path d="M55.7417 124.832L56.5256 123.482L235.163 225.902V227.701L55.7417 124.832Z" fill="#C5960E"/>
<path d="M56.5317 123.493L57.3156 122.144L235.169 224.113V225.912L56.5317 123.493Z" fill="#C4950E"/>
<path d="M57.314 122.138L58.0978 120.806L235.168 222.326V224.107L57.314 122.138Z" fill="#C3940E"/>
<path d="M58.0947 120.787L58.8786 119.438L235.165 220.508V222.307L58.0947 120.787Z" fill="#C2930E"/>
<path d="M58.8813 119.449L59.6652 118.1L235.167 218.72V220.519L58.8813 119.449Z" fill="#C1920E"/>
<path d="M59.6631 118.103L60.1857 117.187H61.1786L235.165 216.942V218.724L59.6631 118.103Z" fill="#C0910F"/>
<path d="M64.3098 117.187L235.161 215.143V216.942L61.1743 117.187H64.3098Z" fill="#BF900F"/>
<path d="M67.4451 117.187L235.161 213.344V215.143L64.3096 117.187H67.4451Z" fill="#BF8F0F"/>
<path d="M70.5847 117.187L235.165 211.545V213.344L67.4492 117.187H70.5847Z" fill="#BE8E0F"/>
<path d="M73.6996 117.187L235.162 209.746V211.545L70.5815 117.187H73.6996Z" fill="#BD8D0F"/>
<path d="M76.8362 117.187L235.163 207.965V209.746L73.7007 117.187H76.8362Z" fill="#BC8C0F"/>
<path d="M79.9724 117.187L235.163 206.166V207.965L76.8369 117.187H79.9724Z" fill="#BB8B0F"/>
<path d="M83.1038 117.187L235.159 204.367V206.166L79.9683 117.187H83.1038Z" fill="#BA8A0F"/>
<path d="M86.2265 117.187L235.164 202.568V204.367L83.1084 117.187H86.2265Z" fill="#B9890F"/>
<path d="M89.364 117.187L235.166 200.786V202.568L86.2285 117.187H89.364Z" fill="#B9880F"/>
<path d="M92.4988 117.187L235.165 198.987V200.786L89.3633 117.187H92.4988Z" fill="#B8870F"/>
<path d="M95.6142 117.187L235.162 197.188V198.987L92.4961 117.187H95.6142Z" fill="#B7860F"/>
<path d="M235.163 197.188L95.6152 117.187H235.163V197.188Z" fill="#B7860F"/>
</g>
<mask id="mask1_437_3362" style="mask-type:luminance" maskUnits="userSpaceOnUse" x="101" y="7" width="263" height="282">
<path d="M233.937 287.54C233.745 287.749 233.511 287.916 233.25 288.03C232.989 288.144 232.707 288.203 232.422 288.203C232.137 288.203 231.855 288.144 231.594 288.03C231.333 287.916 231.099 287.749 230.906 287.54C219.497 276.384 143.809 203.63 120.014 175.659C115.86 170.758 112.009 165.611 108.482 160.247C102.974 151.85 100.51 141.842 101.494 131.869C102.479 121.896 106.854 112.553 113.899 105.379C142.363 76.4226 175.268 44.1624 199.255 20.9489C208.134 12.3102 220.07 7.47168 232.5 7.47168C244.931 7.47168 256.866 12.3102 265.745 20.9489C289.663 44.1624 322.585 76.44 351.101 105.396C358.163 112.582 362.542 121.946 363.514 131.939C364.487 141.932 361.994 151.956 356.449 160.351C352.931 165.679 349.092 170.791 344.952 175.659C321.296 203.63 245.539 276.384 233.937 287.54Z" fill="white"/>
</mask>
<g mask="url(#mask1_437_3362)">
<path d="M367.743 43.0124L249.952 3.00293H367.743V43.0124Z" fill="#DC153D"/>
<path d="M367.745 46.1433L240.722 3.00293H249.954L367.745 43.0124V46.1433Z" fill="#DC153D"/>
<path d="M367.744 49.2915L231.505 3.00293H240.72L367.744 46.1433V49.2915Z" fill="#DB163C"/>
<path d="M367.745 52.4223L222.274 3.00293H231.507L367.745 49.2915V52.4223Z" fill="#DA163C"/>
<path d="M367.75 55.5532L213.047 3.00293H222.279L367.75 52.4223V55.5532Z" fill="#D9163B"/>
<path d="M367.742 58.6841L203.824 3.00293H213.039L367.742 55.5532V58.6841Z" fill="#D8163B"/>
<path d="M367.743 61.815L194.593 3.00293H203.825L367.743 58.6841V61.815Z" fill="#D7163A"/>
<path d="M367.752 64.9632L185.369 3.00293H194.602L367.752 61.815V64.9632Z" fill="#D61639"/>
<path d="M367.743 68.094L176.146 3.00293H185.36L367.743 64.9631V68.094Z" fill="#D51639"/>
<path d="M367.749 71.2249L166.918 3.00293H176.151L367.749 68.094V71.2249Z" fill="#D41738"/>
<path d="M367.74 74.3558L157.678 3.00293H166.91L367.74 71.2249V74.3558Z" fill="#D31738"/>
<path d="M367.749 77.4867L148.471 3.00293H157.686L367.749 74.3558V77.4867Z" fill="#D11737"/>
<path d="M367.741 80.6175L139.231 3.00293H148.464L367.741 77.4867V80.6175Z" fill="#D01736"/>
<path d="M367.749 83.7657L135.425 4.83648L136.052 3.00293H139.24L367.749 80.6175V83.7657Z" fill="#CF1736"/>
<path d="M367.749 86.9087L134.467 7.66815L135.425 4.84863L367.749 83.7779V86.9087Z" fill="#CE1735"/>
<path d="M367.746 90.0209L133.487 10.4516L134.463 7.64941L367.746 86.89V90.0209Z" fill="#CD1735"/>
<path d="M367.747 93.1532L132.53 13.2553L133.488 10.4531L367.747 90.0224V93.1532Z" fill="#CC1734"/>
<path d="M367.748 96.3032L131.556 16.0766L132.532 13.2744L367.748 93.1723V96.3032Z" fill="#CB1734"/>
<path d="M367.748 99.4284L130.598 18.8559L131.556 16.0537L367.748 96.2803V99.4284Z" fill="#CA1733"/>
<path d="M367.745 102.591L129.62 21.7072L130.595 18.8877L367.745 99.4602V102.591Z" fill="#C91832"/>
<path d="M367.753 105.701L128.67 24.4887L129.628 21.6865L367.753 102.57V105.701Z" fill="#C81832"/>
<path d="M367.746 108.831L127.687 27.2895L128.663 24.4873L367.746 105.7V108.831Z" fill="#C71831"/>
<path d="M367.745 111.959L126.729 30.0893L127.687 27.2871L367.745 108.828V111.959Z" fill="#C61831"/>
<path d="M367.752 115.092L125.759 32.9113L126.735 30.0918L367.752 111.962V115.092Z" fill="#C51830"/>
<path d="M367.744 118.249L124.793 35.7221L125.752 32.9199L367.744 115.101V118.249Z" fill="#C41830"/>
<path d="M367.745 121.384L123.819 38.5278L124.794 35.7256L367.745 118.253V121.384Z" fill="#C3182F"/>
<path d="M367.745 124.511L122.861 41.3266L123.819 38.5244L367.745 121.38V124.511Z" fill="#C2182E"/>
<path d="M367.746 127.641L121.886 44.1274L122.862 41.3252L367.746 124.51V127.641Z" fill="#C1182E"/>
<path d="M367.745 130.768L120.928 46.9435L121.886 44.124L367.745 127.637V130.768Z" fill="#C0182D"/>
<path d="M367.743 133.902L119.95 49.7319L120.925 46.9297L367.743 130.754V133.902Z" fill="#BF182D"/>
<path d="M367.743 137.03L118.992 52.5307L119.95 49.7285L367.743 133.899V137.03Z" fill="#BE182C"/>
<path d="M367.744 140.192L118.017 55.3647L118.993 52.5625L367.744 137.062V140.192Z" fill="#BD182C"/>
<path d="M367.745 143.288L117.06 58.1313L118.018 55.3291L367.745 140.157V143.288Z" fill="#BC182B"/>
<path d="M367.749 146.45L116.106 60.9653L117.065 58.1631L367.749 143.319V146.45Z" fill="#BB192A"/>
<path d="M367.749 149.595L115.131 63.7814L116.106 60.9619L367.749 146.447V149.595Z" fill="#BA192A"/>
<path d="M367.75 152.708L114.174 66.5659L115.132 63.7637L367.75 149.577V152.708Z" fill="#B91929"/>
<path d="M367.747 153.729L367.102 155.615L113.195 69.3686L114.17 66.5664L367.747 152.709V153.729Z" fill="#B81929"/>
<path d="M112.747 69.0363L111.783 71.835L365.693 158.061L366.657 155.263L112.747 69.0363Z" fill="#B71928"/>
<path d="M111.772 71.8702L110.809 74.6689L364.719 160.895L365.683 158.097L111.772 71.8702Z" fill="#B61928"/>
<path d="M110.807 74.6378L109.843 77.4365L363.753 163.663L364.717 160.864L110.807 74.6378Z" fill="#B51927"/>
<path d="M109.832 77.4708L108.868 80.2695L362.779 166.496L363.743 163.697L109.832 77.4708Z" fill="#B41927"/>
<path d="M108.886 80.2693L107.922 83.0684L361.833 169.295L362.797 166.496L108.886 80.2693Z" fill="#B31926"/>
<path d="M107.908 83.0753L106.944 85.874L360.855 172.1L361.819 169.302L107.908 83.0753Z" fill="#B31926"/>
<path d="M106.937 85.8742L105.974 88.6729L359.884 174.899L360.848 172.101L106.937 85.8742Z" fill="#B21925"/>
<path d="M105.972 88.6749L105.008 91.4736L358.918 177.7L359.882 174.901L105.972 88.6749Z" fill="#B11925"/>
<path d="M105.017 91.507L104.053 94.3057L357.964 180.532L358.928 177.733L105.017 91.507Z" fill="#B01924"/>
<path d="M104.048 94.3283L103.084 97.127L356.995 183.353L357.958 180.555L104.048 94.3283Z" fill="#AF1924"/>
<path d="M103.077 97.1076L102.113 99.9062L356.024 186.133L356.988 183.334L103.077 97.1076Z" fill="#AE1923"/>
<path d="M102.106 99.9132L101.143 102.712L355.053 188.938L356.017 186.14L102.106 99.9132Z" fill="#AD1923"/>
<path d="M101.144 102.693L100.18 105.491L354.091 191.718L355.055 188.919L101.144 102.693Z" fill="#AC1922"/>
<path d="M100.179 105.533L99.2148 108.332L353.125 194.558L354.089 191.759L100.179 105.533Z" fill="#AB1922"/>
<path d="M99.2163 108.312L98.2524 111.11L352.163 197.337L353.127 194.538L99.2163 108.312Z" fill="#AA1921"/>
<path d="M98.2471 111.146L97.2832 113.944L351.194 200.171L352.158 197.372L98.2471 111.146Z" fill="#A91921"/>
<path d="M351.633 200.502L350.657 203.321L97.168 117.214V115.899L97.7254 114.256L351.633 200.502Z" fill="#A81920"/>
<path d="M350.657 203.331L349.699 206.134L97.168 120.355V117.224L350.657 203.331Z" fill="#A71920"/>
<path d="M349.699 206.135L348.741 208.937L97.168 123.486V120.355L349.699 206.135Z" fill="#A6191F"/>
<path d="M348.741 208.95L347.766 211.753L97.168 126.631V123.5L348.741 208.95Z" fill="#A5191F"/>
<path d="M347.766 211.733L346.808 214.535L97.168 129.742V126.611L347.766 211.733Z" fill="#A4191E"/>
<path d="M346.808 214.54L345.832 217.36L97.168 132.878V129.747L346.808 214.54Z" fill="#A3191E"/>
<path d="M345.832 217.369L344.874 220.171L97.168 136.035V132.887L345.832 217.369Z" fill="#A2191D"/>
<path d="M344.874 220.158L343.899 222.96L97.168 139.153V136.022L344.874 220.158Z" fill="#A1191D"/>
<path d="M343.899 222.942L342.941 225.744L97.168 142.266V139.135L343.899 222.942Z" fill="#A0191D"/>
<path d="M342.941 225.757L341.965 228.559L97.168 145.409V142.278L342.941 225.757Z" fill="#9F191C"/>
<path d="M341.965 228.559L341.007 231.379L97.168 148.54V145.409L341.965 228.559Z" fill="#9E191C"/>
<path d="M341.007 231.392L340.031 234.194L97.168 151.702V148.554L341.007 231.392Z" fill="#9E191B"/>
<path d="M340.031 234.178L339.073 236.98L97.168 154.816V151.686L340.031 234.178Z" fill="#9D191B"/>
<path d="M339.073 236.993L338.098 239.795L97.168 157.96V154.829L339.073 236.993Z" fill="#9C191A"/>
<path d="M338.098 239.797L337.14 242.617L97.168 161.093V157.962L338.098 239.797Z" fill="#9B191A"/>
<path d="M337.14 242.621L336.164 245.423L97.168 164.228V161.097L337.14 242.621Z" fill="#9A1919"/>
<path d="M336.164 245.412L335.206 248.214L97.168 167.365V164.217L336.164 245.412Z" fill="#991919"/>
<path d="M335.206 248.201L334.231 251.003L97.168 170.482V167.352L335.206 248.201Z" fill="#981919"/>
<path d="M334.231 251.005L333.273 253.807L97.168 173.615V170.484L334.231 251.005Z" fill="#971918"/>
<path d="M333.273 253.82L332.297 256.622L97.168 176.759V173.628L333.273 253.82Z" fill="#961918"/>
<path d="M332.297 256.624L331.339 259.444L97.168 179.892V176.761L332.297 256.624Z" fill="#951917"/>
<path d="M331.339 259.423L330.364 262.225L97.168 183.002V179.871L331.339 259.423Z" fill="#951917"/>
<path d="M330.364 262.239L329.406 265.041L97.168 186.164V183.016L330.364 262.239Z" fill="#941916"/>
<path d="M329.406 265.056L328.43 267.858L97.168 189.31V186.179L329.406 265.056Z" fill="#931916"/>
<path d="M328.43 267.865L327.472 270.685L97.168 192.447V189.316L328.43 267.865Z" fill="#921916"/>
<path d="M327.472 270.664L326.496 273.466L97.168 195.558V192.427L327.472 270.664Z" fill="#911815"/>
<path d="M326.496 273.479L325.538 276.281L97.168 198.701V195.57L326.496 273.479Z" fill="#901815"/>
<path d="M325.538 276.262L324.563 279.064L97.168 201.83V198.682L325.538 276.262Z" fill="#8F1814"/>
<path d="M324.563 279.081L323.605 281.883L97.168 204.978V201.847L324.563 279.081Z" fill="#8E1814"/>
<path d="M323.605 281.863L322.629 284.666L97.168 208.089V204.958L323.605 281.863Z" fill="#8D1813"/>
<path d="M322.629 284.666L321.671 287.485L97.168 211.22V208.089L322.629 284.666Z" fill="#8D1813"/>
<path d="M321.671 287.498L321.34 288.449H315.278L97.168 214.363V211.232L321.671 287.498Z" fill="#8C1812"/>
<path d="M306.046 288.451L97.168 217.496V214.365L315.278 288.451H306.046Z" fill="#8B1812"/>
<path d="M97.168 217.5L306.046 288.455H97.168V217.5Z" fill="#8B1812"/>
</g>
<mask id="mask2_437_3362" style="mask-type:luminance" maskUnits="userSpaceOnUse" x="98" y="4" width="269" height="287">
<path d="M232.435 290.866C231.807 290.859 231.187 290.729 230.609 290.482C230.032 290.236 229.51 289.879 229.073 289.431L222.297 282.857C199.512 260.751 138.944 202.06 118.041 177.342C113.811 172.357 109.896 167.117 106.317 161.653C100.444 152.778 97.8092 142.174 98.8519 131.605C99.8947 121.036 104.552 111.141 112.048 103.567C141.139 73.9709 174.498 41.2957 197.404 19.0855C206.739 9.90921 219.343 4.76172 232.479 4.76172C245.614 4.76172 258.218 9.90921 267.553 19.0855C290.407 41.2957 323.783 73.9709 352.909 103.585C360.428 111.168 365.096 121.087 366.13 131.68C367.164 142.273 364.501 152.898 358.587 161.774C355.011 167.193 351.108 172.392 346.899 177.342C332.092 194.951 293.038 234.424 236.947 288.358L235.849 289.413C235.408 289.871 234.878 290.236 234.292 290.486C233.705 290.735 233.074 290.865 232.435 290.866ZM232.435 9.95228C220.692 9.97608 209.429 14.5864 201.08 22.7872C178.226 44.9628 144.902 77.6208 115.846 107.165C109.183 113.902 105.044 122.7 104.115 132.096C103.187 141.493 105.525 150.922 110.742 158.816C114.21 164.09 117.997 169.15 122.082 173.969C142.829 198.445 203.257 256.998 226.007 279.069L232.488 285.383L233.306 284.605C289.275 230.74 328.19 191.457 342.892 173.9C346.965 169.106 350.746 164.075 354.215 158.833C359.473 150.944 361.84 141.5 360.92 132.084C360 122.668 355.85 113.852 349.164 107.113C320.09 77.5343 286.749 44.8416 263.912 22.7006C255.504 14.5321 244.198 9.9776 232.435 10.0215V9.95228Z" fill="white"/>
</mask>
<g mask="url(#mask2_437_3362)">
<path d="M364.975 27.2301L266.502 9.98438H364.975V27.2301Z" fill="#FFD700"/>
<path d="M364.982 30.9491L245.223 9.98438H266.509L364.982 27.2301V30.9491Z" fill="#FFD700"/>
<path d="M364.977 34.6681L223.931 9.98438H245.218L364.977 30.9491V34.6681Z" fill="#FFD600"/>
<path d="M364.979 38.4044L202.664 9.98438H223.933L364.979 34.6681V38.4044Z" fill="#FED500"/>
<path d="M364.981 42.1234L181.396 9.98438H202.666L364.981 38.4044V42.1234Z" fill="#FDD400"/>
<path d="M364.98 45.8597L160.109 9.98438H181.396L364.98 42.1234V45.8597Z" fill="#FCD300"/>
<path d="M364.984 49.5787L138.826 9.98438H160.112L364.984 45.8597V49.5787Z" fill="#FAD200"/>
<path d="M364.978 53.2977L118.23 10.1055L118.247 9.98438H138.82L364.978 49.5787V53.2977Z" fill="#F9D000"/>
<path d="M364.983 57.0565L117.59 13.7431L118.235 10.1279L364.983 53.3202V57.0565Z" fill="#F8CF00"/>
<path d="M364.981 60.7833L116.944 17.3662L117.589 13.751L364.981 57.0643V60.7833Z" fill="#F7CE00"/>
<path d="M364.983 64.4975L116.318 20.9592L116.945 17.3613L364.983 60.7785V64.4975Z" fill="#F6CD01"/>
<path d="M364.984 68.2335L115.675 24.5742L116.319 20.959L364.984 64.4972V68.2335Z" fill="#F5CC01"/>
<path d="M364.981 71.9486L115.028 28.1855L115.672 24.5703L364.981 68.2296V71.9486Z" fill="#F4CB02"/>
<path d="M364.98 75.6888L114.382 31.8047L115.026 28.1895L364.98 71.9525V75.6888Z" fill="#F3CA02"/>
<path d="M364.977 79.4157L113.735 35.4277L114.379 31.8125L364.977 75.6967V79.4157Z" fill="#F2C802"/>
<path d="M364.975 83.1064L113.088 39.0146L113.732 35.3994L364.975 79.3874V83.1064Z" fill="#F1C703"/>
<path d="M364.984 86.871L112.453 42.6582L113.097 39.043L364.984 83.1347V86.871Z" fill="#F0C603"/>
<path d="M364.985 90.5851L111.827 46.2685L112.454 42.6533L364.985 86.8661V90.5851Z" fill="#EFC503"/>
<path d="M364.984 94.3254L111.181 49.8877L111.825 46.2725L364.984 90.5891V94.3254Z" fill="#EEC404"/>
<path d="M364.985 98.0512L110.537 53.4924L111.182 49.8945L364.985 94.3322V98.0512Z" fill="#EDC304"/>
<path d="M364.979 101.758L109.887 57.0957L110.531 53.4805L364.979 98.0392V101.758Z" fill="#ECC105"/>
<path d="M364.98 105.503L109.243 60.7197L109.888 57.1045L364.98 101.767V105.503Z" fill="#EBC005"/>
<path d="M364.985 109.218L108.622 64.331L109.249 60.7158L364.985 105.499V109.218Z" fill="#EABF05"/>
<path d="M364.974 112.928L107.966 67.9199L108.61 64.3047L364.974 109.192V112.928Z" fill="#E9BE06"/>
<path d="M364.976 116.673L107.324 71.5605L107.968 67.9453L364.976 112.954V116.673Z" fill="#E8BD06"/>
<path d="M364.983 120.374L106.686 75.1582L107.33 71.543L364.983 116.655V120.374Z" fill="#E7BC06"/>
<path d="M364.984 124.106L106.042 78.7685L106.687 75.1533L364.984 120.369V124.106Z" fill="#E6BB06"/>
<path d="M364.986 127.833L105.4 82.3916L106.044 78.7764L364.986 124.114V127.833Z" fill="#E5BA07"/>
<path d="M364.987 131.576L104.773 86.0139L105.401 82.416L364.987 127.857V131.576Z" fill="#E4B807"/>
<path d="M364.984 135.284L104.126 89.6006L104.771 85.9854L364.984 131.547V135.284Z" fill="#E3B707"/>
<path d="M364.982 139.027L103.479 93.2402L104.124 89.625L364.982 135.308V139.027Z" fill="#E2B608"/>
<path d="M364.979 142.759L102.832 96.8506L103.477 93.2354L364.979 139.022V142.759Z" fill="#E1B508"/>
<path d="M364.978 146.485L102.187 100.474L102.831 96.8584L364.978 142.766V146.485Z" fill="#E0B408"/>
<path d="M364.979 150.175L101.543 104.06L102.187 100.444L364.979 146.456V150.175Z" fill="#DFB309"/>
<path d="M364.98 153.92L100.917 107.684L101.544 104.068L364.98 150.184V153.92Z" fill="#DEB209"/>
<path d="M364.979 157.634L100.271 111.294L100.916 107.679L364.979 153.915V157.634Z" fill="#DDB109"/>
<path d="M364.984 161.375L99.9458 114.965V113.08L100.277 111.298L364.984 157.638V161.375Z" fill="#DCB009"/>
<path d="M364.984 162.489L364.532 165.031L99.9458 118.708V114.989L364.984 161.399V162.489Z" fill="#DBAF0A"/>
<path d="M364.531 164.998L363.887 168.613L99.9458 122.411V118.675L364.531 164.998Z" fill="#DAAE0A"/>
<path d="M363.887 168.609L363.242 172.224L99.9458 126.126V122.407L363.887 168.609Z" fill="#D9AC0A"/>
<path d="M363.242 172.24L362.598 175.855L99.9458 129.861V126.142L363.242 172.24Z" fill="#D8AB0A"/>
<path d="M362.598 175.854L361.953 179.469L99.9458 133.596V129.859L362.598 175.854Z" fill="#D7AA0B"/>
<path d="M361.953 179.465L361.309 183.08L99.9458 137.311V133.592L361.953 179.465Z" fill="#D6A90B"/>
<path d="M361.309 183.075L360.682 186.69L99.9458 141.042V137.306L361.309 183.075Z" fill="#D5A80B"/>
<path d="M360.682 186.687L360.037 190.285L99.9458 144.757V141.038L360.682 186.687Z" fill="#D4A70B"/>
<path d="M360.037 190.312L359.393 193.927L99.9458 148.503V144.784L360.037 190.312Z" fill="#D3A60B"/>
<path d="M359.393 193.912L358.748 197.527L99.9458 152.225V148.488L359.393 193.912Z" fill="#D2A50C"/>
<path d="M358.748 197.538L358.104 201.153L99.9458 155.954V152.235L358.748 197.538Z" fill="#D1A40C"/>
<path d="M358.104 201.139L357.459 204.754L99.9458 159.677V155.94L358.104 201.139Z" fill="#D0A30C"/>
<path d="M357.459 204.759L356.832 208.375L99.9458 163.401V159.682L357.459 204.759Z" fill="#D0A20C"/>
<path d="M356.832 208.394L356.188 212.009L99.9458 167.139V163.42L356.832 208.394Z" fill="#CFA10C"/>
<path d="M356.188 212.003L355.543 215.618L99.9458 170.869V167.133L356.188 212.003Z" fill="#CEA00D"/>
<path d="M355.543 215.615L354.898 219.23L99.9458 174.585V170.866L355.543 215.615Z" fill="#CD9F0D"/>
<path d="M354.898 219.223L354.254 222.839L99.9458 178.297V174.578L354.898 219.223Z" fill="#CC9E0D"/>
<path d="M354.254 222.858L353.609 226.456L99.9458 182.053V178.316L354.254 222.858Z" fill="#CB9D0D"/>
<path d="M353.609 226.432L352.982 230.048L99.9458 185.748V182.029L353.609 226.432Z" fill="#CA9C0D"/>
<path d="M352.982 230.063L352.338 233.678L99.9458 189.5V185.764L352.982 230.063Z" fill="#C99B0D"/>
<path d="M352.338 233.675L351.693 237.291L99.9458 193.216V189.497L352.338 233.675Z" fill="#C89A0E"/>
<path d="M351.693 237.288L351.049 240.904L99.9458 196.933V193.214L351.693 237.288Z" fill="#C7990E"/>
<path d="M351.049 240.898L350.404 244.514L99.9458 200.664V196.928L351.049 240.898Z" fill="#C6980E"/>
<path d="M350.404 244.511L349.76 248.126L99.9458 204.38V200.661L350.404 244.511Z" fill="#C6970E"/>
<path d="M349.76 248.119L349.133 251.734L99.9458 208.109V204.373L349.76 248.119Z" fill="#C5960E"/>
<path d="M349.133 251.757L348.488 255.372L99.9458 211.851V208.132L349.133 251.757Z" fill="#C4950E"/>
<path d="M348.488 255.366L347.844 258.964L99.9458 215.564V211.845L348.488 255.366Z" fill="#C3940E"/>
<path d="M347.844 258.958L347.199 262.574L99.9458 219.295V215.559L347.844 258.958Z" fill="#C2930E"/>
<path d="M347.199 262.571L346.555 266.186L99.9458 223.011V219.292L347.199 262.571Z" fill="#C1920E"/>
<path d="M346.555 266.184L345.91 269.799L99.9458 226.728V223.009L346.555 266.184Z" fill="#C0910F"/>
<path d="M345.91 269.813L345.283 273.429L99.9458 230.478V226.742L345.91 269.813Z" fill="#BF900F"/>
<path d="M345.283 273.427L344.638 277.042L99.9458 234.196V230.477L345.283 273.427Z" fill="#BF8F0F"/>
<path d="M344.638 277.006L343.994 280.622L99.9458 237.896V234.16L344.638 277.006Z" fill="#BE8E0F"/>
<path d="M343.994 280.652L343.349 284.267L99.9458 241.646V237.927L343.994 280.652Z" fill="#BD8D0F"/>
<path d="M343.349 284.261L343.14 285.437H328.769L99.9458 245.359V241.64L343.349 284.261Z" fill="#BC8C0F"/>
<path d="M307.5 285.43L99.9458 249.088V245.352L328.769 285.43H307.5Z" fill="#BB8B0F"/>
<path d="M286.213 285.432L99.9458 252.809V249.09L307.5 285.432H286.213Z" fill="#BA8A0F"/>
<path d="M264.944 285.448L99.9458 256.543V252.824L286.213 285.448H264.944Z" fill="#B9890F"/>
<path d="M243.657 285.441L99.9458 260.272V256.536L264.944 285.441H243.657Z" fill="#B9880F"/>
<path d="M222.388 285.439L99.9458 263.99V260.271L243.657 285.439H222.388Z" fill="#B8870F"/>
<path d="M201.101 285.437L99.9458 267.725V263.988L222.388 285.437H201.101Z" fill="#B7860F"/>
<path d="M99.9458 267.721L201.101 285.434H99.9458V267.721Z" fill="#B7860F"/>
<path d="M233.953 287.459L232.106 287.131V285.729H233.953V287.459Z" fill="#B8870F"/>
<path d="M232.106 287.121L233.953 287.45V287.571H232.106V287.121Z" fill="#B7860F"/>
<path d="M370.697 28.2542L209.514 0.0244141H370.697V28.2542Z" fill="#FFD700"/>
<path d="M370.691 31.9732L188.221 0.0244141H209.507L370.691 28.2542V31.9732Z" fill="#FFD700"/>
<path d="M370.693 35.6922L166.954 0.0244141H188.223L370.693 31.9732V35.6922Z" fill="#FFD600"/>
<path d="M370.695 39.4285L145.687 0.0244141H166.956L370.695 35.6922V39.4285Z" fill="#FED500"/>
<path d="M370.69 43.1475L124.395 0.0244141H145.681L370.69 39.4285V43.1475Z" fill="#FDD400"/>
<path d="M370.697 46.8838L113.898 1.90986L114.246 0.0244141H124.402L370.697 43.1475V46.8838Z" fill="#FCD300"/>
<path d="M370.696 50.605L113.252 5.52732L113.896 1.91211L370.696 46.886V50.605Z" fill="#FAD200"/>
<path d="M370.691 54.3309L112.621 9.14939L113.248 5.53418L370.691 50.6119V54.3309Z" fill="#F9D000"/>
<path d="M370.698 58.0701L111.982 12.7676L112.627 9.15234L370.698 54.3338V58.0701Z" fill="#F8CF00"/>
<path d="M370.7 61.7852L111.34 16.3789L111.984 12.7637L370.7 58.0662V61.7852Z" fill="#F7CE00"/>
<path d="M370.697 65.4876L110.693 19.9775L111.337 16.3623L370.697 61.7687V65.4876Z" fill="#F6CD01"/>
<path d="M370.691 69.2406L110.042 23.5921L110.687 19.9941L370.691 65.5043V69.2406Z" fill="#F5CC01"/>
<path d="M370.697 72.931L109.404 27.1787L110.048 23.5635L370.697 69.212V72.931Z" fill="#F4CB02"/>
<path d="M370.698 76.6927L108.777 30.8193L109.404 27.2041L370.698 72.9564V76.6927Z" fill="#F3CA02"/>
<path d="M370.695 80.4186L108.13 34.4414L108.775 30.8262L370.695 76.6996V80.4186Z" fill="#F2C802"/>
<path d="M370.693 84.1122L107.483 38.0312L108.128 34.416L370.693 80.3932V84.1122Z" fill="#F1C703"/>
<path d="M370.699 87.8524L106.845 41.6504L107.489 38.0352L370.699 84.1161V87.8524Z" fill="#F0C603"/>
<path d="M370.701 91.5998L106.203 45.2939L106.847 41.6787L370.701 87.8808V91.5998Z" fill="#EFC503"/>
<path d="M370.693 95.3263L105.55 48.8994L106.195 45.2842L370.693 91.59V95.3263Z" fill="#EEC404"/>
<path d="M370.691 99.0336L104.92 52.5029L105.548 48.8877L370.691 95.3146V99.0336Z" fill="#EDC304"/>
<path d="M370.697 102.749L104.282 56.0969L104.927 52.499L370.697 99.0297V102.749Z" fill="#ECC105"/>
<path d="M370.694 106.505L103.635 59.7324L104.279 56.1172L370.694 102.769V106.505Z" fill="#EBC005"/>
<path d="M370.693 110.2L102.989 63.3232L103.634 59.708L370.693 106.481V110.2Z" fill="#EABF05"/>
<path d="M370.689 113.923L102.341 66.9424L102.985 63.3271L370.689 110.204V113.923Z" fill="#E9BE06"/>
<path d="M370.699 117.654L101.706 70.5527L102.351 66.9375L370.699 113.918V117.654Z" fill="#E8BD06"/>
<path d="M370.696 121.402L101.076 74.1963L101.703 70.5811L370.696 117.683V121.402Z" fill="#E7BC06"/>
<path d="M370.695 125.121L100.43 77.7949L101.075 74.1797L370.695 121.385V125.121Z" fill="#E6BB06"/>
<path d="M370.692 128.835L99.7832 81.4053L100.428 77.79L370.692 125.116V128.835Z" fill="#E5BA07"/>
<path d="M370.698 132.556L99.1445 85.0224L99.7891 81.4072L370.698 128.837V132.556Z" fill="#E4B807"/>
<path d="M370.696 136.29L98.4976 88.6347L99.1421 85.0195L370.696 132.554V136.29Z" fill="#E3B707"/>
<path d="M370.694 140.017L97.8516 92.2405L98.4961 88.6426L370.694 136.298V140.017Z" fill="#E2B608"/>
<path d="M370.697 143.724L97.2275 95.8437L97.8546 92.2285L370.697 140.005V143.724Z" fill="#E1B508"/>
<path d="M370.687 147.469L96.5732 99.4678L97.2178 95.8525L370.687 143.732V147.469Z" fill="#E0B408"/>
<path d="M370.697 151.19L95.9385 103.085L96.583 99.4697L370.697 147.471V151.19Z" fill="#DFB309"/>
<path d="M370.696 154.923L95.2925 106.697L95.937 103.082L370.696 151.187V154.923Z" fill="#DEB209"/>
<path d="M370.697 158.649L94.6489 110.319L95.2934 106.704L370.697 154.93V158.649Z" fill="#DDB109"/>
<path d="M370.693 162.377L94.2275 113.96V112.68L94.6456 110.311L370.693 158.64V162.377Z" fill="#DCB009"/>
<path d="M370.693 163.235L370.206 166.003L94.2275 117.673V113.954L370.693 162.37V163.235Z" fill="#DBAF0A"/>
<path d="M370.206 166.017L369.561 169.632L94.2275 121.424V117.688L370.206 166.017Z" fill="#DAAE0A"/>
<path d="M369.561 169.643L368.917 173.258L94.2275 125.154V121.435L369.561 169.643Z" fill="#D9AC0A"/>
<path d="M368.917 173.242L368.289 176.84L94.2275 128.857V125.138L368.917 173.242Z" fill="#D8AB0A"/>
<path d="M368.289 176.835L367.645 180.45L94.2275 132.588V128.852L368.289 176.835Z" fill="#D7AA0B"/>
<path d="M367.645 180.448L367 184.063L94.2275 136.304V132.585L367.645 180.448Z" fill="#D6A90B"/>
<path d="M367 184.057L366.356 187.672L94.2275 140.034V136.298L367 184.057Z" fill="#D5A80B"/>
<path d="M366.356 187.703L365.711 191.318L94.2275 143.784V140.065L366.356 187.703Z" fill="#D4A70B"/>
<path d="M365.711 191.315L365.067 194.93L94.2275 147.5V143.781L365.711 191.315Z" fill="#D3A60B"/>
<path d="M365.067 194.913L364.44 198.528L94.2275 151.219V147.482L365.067 194.913Z" fill="#D2A50C"/>
<path d="M364.44 198.558L363.795 202.173L94.2275 154.968V151.249L364.44 198.558Z" fill="#D1A40C"/>
<path d="M363.795 202.138L363.151 205.753L94.2275 158.669V154.933L363.795 202.138Z" fill="#D0A30C"/>
<path d="M363.151 205.764L362.506 209.379L94.2275 162.399V158.68L363.151 205.764Z" fill="#D0A20C"/>
<path d="M362.506 209.393L361.862 212.99L94.2275 166.131V162.412L362.506 209.393Z" fill="#CFA10C"/>
<path d="M361.862 212.983L361.217 216.599L94.2275 169.86V166.124L361.862 212.983Z" fill="#CEA00D"/>
<path d="M361.217 216.597L360.59 220.212L94.2275 173.577V169.858L361.217 216.597Z" fill="#CD9F0D"/>
<path d="M360.59 220.211L359.946 223.826L94.2275 177.295V173.576L360.59 220.211Z" fill="#CC9E0D"/>
<path d="M359.946 223.808L359.301 227.423L94.2275 181.014V177.277L359.946 223.808Z" fill="#CB9D0D"/>
<path d="M359.301 227.432L358.656 231.047L94.2275 184.741V181.022L359.301 227.432Z" fill="#CA9C0D"/>
<path d="M358.656 231.062L358.012 234.677L94.2275 188.492V184.756L358.656 231.062Z" fill="#C99B0D"/>
<path d="M358.012 234.678L357.367 238.293L94.2275 192.212V188.493L358.012 234.678Z" fill="#C89A0E"/>
<path d="M357.367 238.288L356.74 241.903L94.2275 195.926V192.207L357.367 238.288Z" fill="#C7990E"/>
<path d="M356.74 241.897L356.096 245.495L94.2275 199.656V195.92L356.74 241.897Z" fill="#C6980E"/>
<path d="M356.096 245.492L355.451 249.107L94.2275 203.372V199.653L356.096 245.492Z" fill="#C6970E"/>
<path d="M355.451 249.127L354.807 252.742L94.2275 207.128V203.392L355.451 249.127Z" fill="#C5960E"/>
<path d="M354.807 252.718L354.162 256.334L94.2275 210.823V207.104L354.807 252.718Z" fill="#C4950E"/>
<path d="M354.162 256.348L353.518 259.963L94.2275 214.557V210.838L354.162 256.348Z" fill="#C3940E"/>
<path d="M353.518 259.956L352.891 263.571L94.2275 218.286V214.55L353.518 259.956Z" fill="#C2930E"/>
<path d="M352.891 263.574L352.246 267.19L94.2275 222.008V218.289L352.891 263.574Z" fill="#C1920E"/>
<path d="M352.246 267.182L351.601 270.798L94.2275 225.737V222.001L352.246 267.182Z" fill="#C0910F"/>
<path d="M351.602 270.796L350.957 274.411L94.2275 229.454V225.735L351.602 270.796Z" fill="#BF900F"/>
<path d="M350.957 274.425L350.312 278.041L94.2275 233.188V229.469L350.957 274.425Z" fill="#BF8F0F"/>
<path d="M350.312 278.038L349.668 281.636L94.2275 236.922V233.186L350.312 278.038Z" fill="#BE8E0F"/>
<path d="M349.668 281.633L349.041 285.249L94.2275 240.638V236.919L349.668 281.633Z" fill="#BD8D0F"/>
<path d="M349.041 285.243L348.396 288.859L94.2275 244.352V240.633L349.041 285.243Z" fill="#BC8C0F"/>
<path d="M348.396 288.852L348.048 290.841H338.432L94.2275 248.081V244.345L348.396 288.852Z" fill="#BB8B0F"/>
<path d="M317.146 290.863L94.2275 251.823V248.104L338.432 290.863H317.146Z" fill="#BA8A0F"/>
<path d="M295.876 290.857L94.2275 255.553V251.816L317.146 290.857H295.876Z" fill="#B9890F"/>
<path d="M274.59 290.854L94.2275 259.269V255.55L295.876 290.854H274.59Z" fill="#B9880F"/>
<path d="M253.32 290.852L94.2275 262.986V259.267L274.59 290.852H253.32Z" fill="#B8870F"/>
<path d="M232.034 290.847L94.2275 266.717V262.98L253.32 290.847H232.034Z" fill="#B7860F"/>
<path d="M94.2275 266.734L232.034 290.865H94.2275V266.734Z" fill="#B7860F"/>
</g>
<path d="M232.535 320.032L232.71 319.859C244.294 308.702 320.068 235.931 343.602 207.96C369.732 177.17 377.466 146.882 372.293 122.821C383.18 134.324 392.621 144.582 399.223 152.383C517.781 292.58 383.354 423.818 232.535 320.032Z" fill="#0C0C0C"/>
<mask id="mask3_437_3362" style="mask-type:luminance" maskUnits="userSpaceOnUse" x="229" y="117" width="218" height="243">
<path d="M339.296 359.034C304.457 359.034 267.336 346.078 231.539 321.446L229.797 320.27L232.531 317.589C288.535 263.689 327.503 224.372 342.275 206.884C366.122 178.862 376.173 149.144 370.616 123.215L369.31 117.144L373.578 121.658C385.772 134.562 394.603 144.266 400.578 151.289C464.543 226.949 451.67 292.577 421.186 325.771C402.024 346.718 373.665 358.636 341.508 359.069L339.296 359.034ZM235.266 319.786C270.68 343.743 307.314 356.111 341.526 355.575C372.707 355.073 400.108 343.656 418.694 323.401C448.203 291.227 460.502 227.433 397.983 153.486C392.757 147.276 385.197 138.973 375.076 128.197C378.368 153.78 367.829 182.252 345.01 209.081C330.151 226.638 291.201 265.955 235.266 319.786Z" fill="white"/>
</mask>
<g mask="url(#mask3_437_3362)">
<path d="M235.261 312.863L283.722 229.506L436.944 317.343L414.386 356.159H235.261V312.863Z" fill="#FFD700"/>
<path d="M284.638 227.933L283.723 229.506L436.949 317.352L437.864 315.779L284.638 227.933Z" fill="#FFD700"/>
<path d="M285.554 226.348L284.64 227.921L437.866 315.767L438.78 314.194L285.554 226.348Z" fill="#FFD600"/>
<path d="M286.484 224.792L285.57 226.365L438.796 314.211L439.711 312.638L286.484 224.792Z" fill="#FED500"/>
<path d="M287.397 223.212L286.482 224.785L439.708 312.631L440.623 311.058L287.397 223.212Z" fill="#FDD400"/>
<path d="M288.302 221.657L287.388 223.229L440.614 311.076L441.528 309.503L288.302 221.657Z" fill="#FCD300"/>
<path d="M289.219 220.069L288.304 221.642L441.53 309.488L442.445 307.915L289.219 220.069Z" fill="#FAD200"/>
<path d="M290.136 218.492L289.221 220.065L442.448 307.912L443.362 306.339L290.136 218.492Z" fill="#F9D000"/>
<path d="M291.052 216.916L290.138 218.489L443.364 306.335L444.279 304.762L291.052 216.916Z" fill="#F8CF00"/>
<path d="M291.961 215.362L291.047 216.935L444.273 304.781L445.188 303.208L291.961 215.362Z" fill="#F7CE00"/>
<path d="M292.878 213.773L291.964 215.346L445.19 303.192L446.105 301.619L292.878 213.773Z" fill="#F6CD01"/>
<path d="M293.787 212.196L292.872 213.769L446.098 301.615L447.013 300.042L293.787 212.196Z" fill="#F5CC01"/>
<path d="M294.708 210.608L293.793 212.181L447.02 300.027L447.934 298.454L294.708 210.608Z" fill="#F4CB02"/>
<path d="M295.613 209.052L294.698 210.625L447.924 298.471L448.839 296.898L295.613 209.052Z" fill="#F3CA02"/>
<path d="M296.531 207.476L295.616 209.049L448.843 296.895L449.757 295.322L296.531 207.476Z" fill="#F2C802"/>
<path d="M297.456 205.922L296.542 207.494L449.768 295.34L450.682 293.768L297.456 205.922Z" fill="#F1C703"/>
<path d="M298.372 204.343L297.458 205.916L450.684 293.762L451.599 292.19L298.372 204.343Z" fill="#F0C603"/>
<path d="M299.282 202.778L298.367 204.351L451.593 292.197L452.508 290.624L299.282 202.778Z" fill="#EFC503"/>
<path d="M300.199 201.199L299.284 202.772L452.511 290.619L453.425 289.046L300.199 201.199Z" fill="#EEC404"/>
<path d="M301.107 199.625L300.192 201.198L453.419 289.044L454.333 287.471L301.107 199.625Z" fill="#EDC304"/>
<path d="M302.028 198.036L301.114 199.609L454.34 287.455L455.255 285.882L302.028 198.036Z" fill="#ECC105"/>
<path d="M302.937 196.48L302.022 198.053L455.248 285.899L456.163 284.326L302.937 196.48Z" fill="#EBC005"/>
<path d="M303.855 194.905L302.94 196.478L456.166 284.324L457.081 282.751L303.855 194.905Z" fill="#EABF05"/>
<path d="M304.771 193.324L303.856 194.897L457.083 282.744L457.997 281.171L304.771 193.324Z" fill="#E9BE06"/>
<path d="M305.681 191.759L304.766 193.332L457.992 281.178L458.907 279.605L305.681 191.759Z" fill="#E8BD06"/>
<path d="M306.573 190.185L305.658 191.758L458.885 279.604L459.799 278.031L306.573 190.185Z" fill="#E7BC06"/>
<path d="M306.587 190.166L307.511 188.592L460.42 276.256V276.983L459.827 278.003L306.587 190.166Z" fill="#E6BB06"/>
<path d="M307.509 188.611L308.415 187.037L460.418 274.183V276.276L307.509 188.611Z" fill="#E5BA07"/>
<path d="M308.413 187.031L309.336 185.457L460.416 272.066V274.177L308.413 187.031Z" fill="#E4B807"/>
<path d="M309.333 185.475L310.239 183.901L460.413 269.992V272.085L309.333 185.475Z" fill="#E3B707"/>
<path d="M310.238 183.87L311.162 182.296L460.412 267.867V269.96L310.238 183.87Z" fill="#E2B608"/>
<path d="M311.16 182.314L312.065 180.757L460.41 265.792V267.885L311.16 182.314Z" fill="#E1B508"/>
<path d="M312.068 180.755L312.991 179.181L460.413 263.697V265.79L312.068 180.755Z" fill="#E0B408"/>
<path d="M312.993 179.179L313.899 177.604L460.415 261.585V263.695L312.993 179.179Z" fill="#DFB309"/>
<path d="M313.899 177.624L314.822 176.05L460.415 259.511V261.604L313.899 177.624Z" fill="#DEB209"/>
<path d="M314.819 176.034L315.725 174.46L460.412 257.402V259.495L314.819 176.034Z" fill="#DDB109"/>
<path d="M315.724 174.458L316.647 172.884L460.411 255.307V257.4L315.724 174.458Z" fill="#DCB009"/>
<path d="M316.654 172.883L317.56 171.309L460.417 253.213V255.306L316.654 172.883Z" fill="#DBAF0A"/>
<path d="M317.559 171.314L318.482 169.74L460.416 251.108V253.219L317.559 171.314Z" fill="#DAAE0A"/>
<path d="M318.48 169.738L319.386 168.164L460.415 249.013V251.106L318.48 169.738Z" fill="#D9AC0A"/>
<path d="M319.381 168.162L320.304 166.588L460.41 246.918V249.011L319.381 168.162Z" fill="#D8AB0A"/>
<path d="M320.31 166.607L321.215 165.033L460.415 244.845V246.938L320.31 166.607Z" fill="#D7AA0B"/>
<path d="M321.213 165.018L322.136 163.444L460.413 242.719V244.83L321.213 165.018Z" fill="#D6A90B"/>
<path d="M322.135 163.446L323.041 161.89L460.411 240.629V242.722L322.135 163.446Z" fill="#D5A80B"/>
<path d="M323.044 161.887L323.967 160.312L460.415 238.533V240.626L323.044 161.887Z" fill="#D4A70B"/>
<path d="M323.969 160.298L324.875 158.724L460.417 236.425V238.518L323.969 160.298Z" fill="#D3A60B"/>
<path d="M324.87 158.722L325.793 157.147L460.412 234.33V236.423L324.87 158.722Z" fill="#D2A50C"/>
<path d="M325.795 157.167L326.701 155.593L460.414 232.239V234.349L325.795 157.167Z" fill="#D1A40C"/>
<path d="M326.696 155.586L327.62 154.012L460.409 230.139V232.232L326.696 155.586Z" fill="#D0A30C"/>
<path d="M327.62 154.03L328.526 152.456L460.409 228.064V230.157L327.62 154.03Z" fill="#D0A20C"/>
<path d="M328.53 152.426L329.453 150.852L460.413 225.941V228.034L328.53 152.426Z" fill="#CFA10C"/>
<path d="M329.451 150.866L330.357 149.292L460.411 223.862V225.955L329.451 150.866Z" fill="#CEA00D"/>
<path d="M330.355 149.282L331.279 147.708L460.41 221.742V223.852L330.355 149.282Z" fill="#CD9F0D"/>
<path d="M331.285 147.726L332.19 146.152L460.416 219.667V221.76L331.285 147.726Z" fill="#CC9E0D"/>
<path d="M332.189 146.128L333.112 144.571L460.414 217.55V219.643L332.189 146.128Z" fill="#CB9D0D"/>
<path d="M333.106 144.59L334.012 143.016L460.408 215.476V217.569L333.106 144.59Z" fill="#CA9C0D"/>
<path d="M334.015 143.015L334.938 141.441L460.411 213.365V215.475L334.015 143.015Z" fill="#C99B0D"/>
<path d="M334.936 141.427L335.841 139.853L460.409 211.257V213.35L334.936 141.427Z" fill="#C89A0E"/>
<path d="M335.845 139.849L336.768 138.275L460.412 209.161V211.254L335.845 139.849Z" fill="#C7990E"/>
<path d="M336.771 138.294L337.676 136.72L460.415 207.087V209.18L336.771 138.294Z" fill="#C6980E"/>
<path d="M337.671 136.706L338.594 135.132L460.409 204.98V207.073L337.671 136.706Z" fill="#C6970E"/>
<path d="M338.596 135.15L339.502 133.576L460.411 202.888V204.998L338.596 135.15Z" fill="#C5960E"/>
<path d="M339.504 133.554L340.428 131.979L460.414 200.772V202.865L339.504 133.554Z" fill="#C4950E"/>
<path d="M340.426 131.997L341.332 130.423L460.412 198.697V200.79L340.426 131.997Z" fill="#C3940E"/>
<path d="M341.331 130.409L342.254 128.835L460.411 196.59V198.683L341.331 130.409Z" fill="#C2930E"/>
<path d="M342.252 128.85L342.635 128.192H344.743L460.409 194.494V196.605L342.252 128.85Z" fill="#C1920E"/>
<path d="M348.407 128.192L460.414 192.401V194.494L344.749 128.192H348.407Z" fill="#C0910F"/>
<path d="M352.059 128.192L460.409 190.308V192.401L348.401 128.192H352.059Z" fill="#BF900F"/>
<path d="M355.72 128.192L460.411 188.215V190.308L352.062 128.192H355.72Z" fill="#BF8F0F"/>
<path d="M359.378 128.192L460.411 186.105V188.215L355.72 128.192H359.378Z" fill="#BE8E0F"/>
<path d="M363.018 128.192L460.41 184.012V186.105L359.377 128.192H363.018Z" fill="#BD8D0F"/>
<path d="M366.695 128.192L460.412 181.919V184.012L363.02 128.192H366.695Z" fill="#BC8C0F"/>
<path d="M370.363 128.192L460.422 179.826V181.919L366.705 128.192H370.363Z" fill="#BB8B0F"/>
<path d="M373.998 128.192L460.416 177.733V179.826L370.357 128.192H373.998Z" fill="#BA8A0F"/>
<path d="M377.645 128.192L460.405 175.623V177.733L373.987 128.192H377.645Z" fill="#B9890F"/>
<path d="M381.306 128.192L460.408 173.53V175.623L377.647 128.192H381.306Z" fill="#B9880F"/>
<path d="M384.969 128.192L460.413 171.437V173.53L381.311 128.192H384.969Z" fill="#B8870F"/>
<path d="M388.621 128.192L460.407 169.344V171.437L384.963 128.192H388.621Z" fill="#B7860F"/>
<path d="M460.412 169.344L388.626 128.192H460.412V169.344Z" fill="#B7860F"/>
<path d="M229.812 313.352L279.858 227.279L440.153 319.199L417.003 359.036H229.812V313.352Z" fill="#FFD700"/>
<path d="M280.76 225.706L279.846 227.279L440.162 319.19L441.077 317.617L280.76 225.706Z" fill="#FFD700"/>
<path d="M281.686 224.146L280.772 225.719L441.089 317.63L442.003 316.057L281.686 224.146Z" fill="#FFD600"/>
<path d="M282.599 222.541L281.685 224.113L442.002 316.024L442.916 314.452L282.599 222.541Z" fill="#FED500"/>
<path d="M283.52 221.006L282.605 222.579L442.922 314.49L443.837 312.917L283.52 221.006Z" fill="#FDD400"/>
<path d="M284.429 219.406L283.515 220.979L443.831 312.89L444.746 311.317L284.429 219.406Z" fill="#FCD300"/>
<path d="M285.334 217.85L284.419 219.423L444.736 311.334L445.65 309.761L285.334 217.85Z" fill="#FAD200"/>
<path d="M286.259 216.262L285.345 217.835L445.661 309.746L446.576 308.173L286.259 216.262Z" fill="#F9D000"/>
<path d="M287.164 214.705L286.249 216.278L446.566 308.189L447.48 306.616L287.164 214.705Z" fill="#F8CF00"/>
<path d="M288.089 213.101L287.174 214.674L447.491 306.585L448.405 305.012L288.089 213.101Z" fill="#F7CE00"/>
<path d="M288.993 211.541L288.079 213.114L448.395 305.025L449.31 303.452L288.993 211.541Z" fill="#F6CD01"/>
<path d="M289.91 209.986L288.996 211.559L449.312 303.47L450.227 301.897L289.91 209.986Z" fill="#F5CC01"/>
<path d="M290.819 208.409L289.905 209.982L450.221 301.894L451.136 300.321L290.819 208.409Z" fill="#F4CB02"/>
<path d="M291.748 206.833L290.834 208.405L451.151 300.316L452.065 298.744L291.748 206.833Z" fill="#F3CA02"/>
<path d="M292.661 205.278L291.747 206.851L452.064 298.762L452.978 297.189L292.661 205.278Z" fill="#F2C802"/>
<path d="M293.58 203.689L292.665 205.262L452.982 297.173L453.896 295.6L293.58 203.689Z" fill="#F1C703"/>
<path d="M294.487 202.115L293.573 203.688L453.889 295.599L454.804 294.026L294.487 202.115Z" fill="#F0C603"/>
<path d="M295.404 200.558L294.49 202.131L454.806 294.042L455.721 292.469L295.404 200.558Z" fill="#EFC503"/>
<path d="M296.313 198.969L295.398 200.542L455.715 292.453L456.629 290.88L296.313 198.969Z" fill="#EEC404"/>
<path d="M297.227 197.393L296.312 198.966L456.629 290.877L457.543 289.304L297.227 197.393Z" fill="#EDC304"/>
<path d="M298.147 195.818L297.232 197.391L457.549 289.302L458.464 287.729L298.147 195.818Z" fill="#ECC105"/>
<path d="M299.064 194.262L298.149 195.835L458.466 287.746L459.38 286.173L299.064 194.262Z" fill="#EBC005"/>
<path d="M299.964 192.672L299.05 194.245L459.366 286.156L460.281 284.583L299.964 192.672Z" fill="#EABF05"/>
<path d="M300.889 191.118L299.975 192.69L460.292 284.602L461.206 283.029L300.889 191.118Z" fill="#E9BE06"/>
<path d="M301.795 189.542L300.881 191.114L461.197 283.025L462.112 281.453L301.795 189.542Z" fill="#E8BD06"/>
<path d="M302.728 187.952L301.813 189.525L462.13 281.437L463.045 279.864L302.728 187.952Z" fill="#E7BC06"/>
<path d="M303.626 186.398L302.711 187.971L463.028 279.882L463.942 278.309L303.626 186.398Z" fill="#E6BB06"/>
<path d="M303.623 186.388L304.546 184.813L464.527 276.526V277.269L463.935 278.29L303.623 186.388Z" fill="#E5BA07"/>
<path d="M304.544 184.832L305.45 183.258L464.525 274.451V276.544L304.544 184.832Z" fill="#E4B807"/>
<path d="M305.449 183.244L306.372 181.67L464.524 272.344V274.437L305.449 183.244Z" fill="#E3B707"/>
<path d="M306.37 181.668L307.276 180.094L464.522 270.232V272.342L306.37 181.668Z" fill="#E2B608"/>
<path d="M307.28 180.111L308.203 178.537L464.526 268.156V270.249L307.28 180.111Z" fill="#E1B508"/>
<path d="M308.204 178.523L309.109 176.949L464.527 266.049V268.142L308.204 178.523Z" fill="#E0B408"/>
<path d="M309.108 176.948L310.032 175.374L464.526 263.955V266.048L309.108 176.948Z" fill="#DFB309"/>
<path d="M310.03 175.371L310.936 173.797L464.524 261.859V263.952L310.03 175.371Z" fill="#DEB209"/>
<path d="M310.934 173.815L311.857 172.241L464.522 259.767V261.878L310.934 173.815Z" fill="#DDB109"/>
<path d="M311.859 172.231L312.765 170.674L464.524 257.664V259.757L311.859 172.231Z" fill="#DCB009"/>
<path d="M312.764 170.671L313.687 169.097L464.523 255.568V257.661L312.764 170.671Z" fill="#DBAF0A"/>
<path d="M313.686 169.116L314.591 167.542L464.521 253.494V255.587L313.686 169.116Z" fill="#DAAE0A"/>
<path d="M314.59 167.541L315.513 165.967L464.52 251.383V253.493L314.59 167.541Z" fill="#D9AC0A"/>
<path d="M315.519 165.953L316.425 164.379L464.526 249.276V251.369L315.519 165.953Z" fill="#D8AB0A"/>
<path d="M316.425 164.375L317.348 162.801L464.526 247.179V249.272L316.425 164.375Z" fill="#D7AA0B"/>
<path d="M317.345 162.82L318.251 161.246L464.523 245.105V247.198L317.345 162.82Z" fill="#D6A90B"/>
<path d="M318.254 161.231L319.178 159.657L464.526 242.997V245.09L318.254 161.231Z" fill="#D5A80B"/>
<path d="M319.171 159.656L320.077 158.082L464.52 240.886V242.996L319.171 159.656Z" fill="#D4A70B"/>
<path d="M320.081 158.08L321.004 156.506L464.524 238.791V240.884L320.081 158.08Z" fill="#D3A60B"/>
<path d="M321.006 156.523L321.912 154.949L464.526 236.715V238.808L321.006 156.523Z" fill="#D2A50C"/>
<path d="M321.909 154.934L322.832 153.36L464.523 234.607V236.7L321.909 154.934Z" fill="#D1A40C"/>
<path d="M322.831 153.362L323.736 151.806L464.521 232.517V234.61L322.831 153.362Z" fill="#D0A30C"/>
<path d="M323.74 151.8L324.663 150.226L464.525 230.4V232.511L323.74 151.8Z" fill="#D0A20C"/>
<path d="M324.657 150.223L325.563 148.648L464.518 228.304V230.397L324.657 150.223Z" fill="#CFA10C"/>
<path d="M325.566 148.659L326.49 147.085L464.522 226.222V228.315L325.566 148.659Z" fill="#CEA00D"/>
<path d="M326.495 147.079L327.401 145.505L464.528 224.123V226.216L326.495 147.079Z" fill="#CD9F0D"/>
<path d="M327.399 145.504L328.323 143.93L464.526 222.011V224.122L327.399 145.504Z" fill="#CC9E0D"/>
<path d="M328.316 143.918L329.222 142.344L464.52 219.906V221.999L328.316 143.918Z" fill="#CB9D0D"/>
<path d="M329.226 142.359L330.149 140.785L464.523 217.829V219.922L329.226 142.359Z" fill="#CA9C0D"/>
<path d="M330.147 140.783L331.053 139.209L464.522 215.734V217.827L330.147 140.783Z" fill="#C99B0D"/>
<path d="M331.056 139.207L331.979 137.633L464.524 213.639V215.732L331.056 139.207Z" fill="#C89A0E"/>
<path d="M331.981 137.619L332.887 136.045L464.526 211.515V213.625L331.981 137.619Z" fill="#C7990E"/>
<path d="M332.88 136.062L333.804 134.488L464.52 209.439V211.532L332.88 136.062Z" fill="#C6980E"/>
<path d="M333.806 134.486L334.711 132.912L464.522 207.344V209.437L333.806 134.486Z" fill="#C6970E"/>
<path d="M334.707 132.914L335.63 131.357L464.517 205.253V207.346L334.707 132.914Z" fill="#C5960E"/>
<path d="M335.632 131.343L336.538 129.769L464.519 203.128V205.238L335.632 131.343Z" fill="#C4950E"/>
<path d="M336.541 129.788L337.464 128.214L464.522 201.054V203.147L336.541 129.788Z" fill="#C3940E"/>
<path d="M337.47 128.21L338.376 126.636L464.528 198.957V201.05L337.47 128.21Z" fill="#C2930E"/>
<path d="M338.367 126.622L339.273 125.048L464.52 196.85V198.943L338.367 126.622Z" fill="#C1920E"/>
<path d="M339.271 125.047L340.195 123.473L464.518 194.739V196.849L339.271 125.047Z" fill="#C0910F"/>
<path d="M340.193 123.491L341.117 121.917L464.517 192.664V194.757L340.193 123.491Z" fill="#BF900F"/>
<path d="M341.122 121.915L342.028 120.341L464.522 190.569V192.662L341.122 121.915Z" fill="#BF8F0F"/>
<path d="M342.03 120.359L342.936 118.785L464.525 188.495V190.588L342.03 120.359Z" fill="#BE8E0F"/>
<path d="M342.936 118.771L343.859 117.197L464.525 186.388V188.481L342.936 118.771Z" fill="#BD8D0F"/>
<path d="M343.865 117.189L343.917 117.103H347.349L464.53 184.269V186.38L343.865 117.189Z" fill="#BC8C0F"/>
<path d="M351.002 117.103L464.526 182.176V184.269L347.344 117.103H351.002Z" fill="#BB8B0F"/>
<path d="M354.666 117.103L464.531 180.083V182.176L351.008 117.103H354.666Z" fill="#BA8A0F"/>
<path d="M358.314 117.103L464.521 177.99V180.083L354.656 117.103H358.314Z" fill="#B9890F"/>
<path d="M361.97 117.103L464.519 175.88V177.99L358.312 117.103H361.97Z" fill="#B9880F"/>
<path d="M365.633 117.103L464.524 173.787V175.88L361.975 117.103H365.633Z" fill="#B8870F"/>
<path d="M369.294 117.103L464.527 171.694V173.787L365.636 117.103H369.294Z" fill="#B7860F"/>
<path d="M464.524 171.694L369.292 117.103H464.524V171.694Z" fill="#B7860F"/>
</g>
</g>
<defs>
<clipPath id="clip0_437_3362">
<rect width="464.057" height="372.903" fill="white" transform="translate(0.47168)"/>
</clipPath>
</defs>
</svg>
